solid 136A
facet normal -0.7933533191680908 -0.6087614297866821 -3.909968459029842e-15
  outer loop
    vertex 72.90918731689453 28.90918922424316 81.13512420654297
    vertex 73.33827209472656 28.35000038146973 60.63512420654297
    vertex 73.33827209472656 28.35000038146973 81.13512420654297
  endloop
endfacet
facet normal -0.7933533191680908 -0.6087614297866821 -3.909968459029842e-15
  outer loop
    vertex 73.33827209472656 28.35000038146973 60.63512420654297
    vertex 72.90918731689453 28.90918922424316 81.13512420654297
    vertex 72.90918731689453 28.90918922424316 60.63512420654297
  endloop
endfacet
facet normal -0.3826834261417389 -0.9238795042037964 -1.88601986574066e-15
  outer loop
    vertex 72.34999847412109 29.3382682800293 60.63512420654297
    vertex 71.69881439208984 29.60799980163574 81.13512420654297
    vertex 71.69881439208984 29.60799980163574 60.63512420654297
  endloop
endfacet
facet normal -0.3826834261417389 -0.9238795042037964 -1.88601986574066e-15
  outer loop
    vertex 71.69881439208984 29.60799980163574 81.13512420654297
    vertex 72.34999847412109 29.3382682800293 60.63512420654297
    vertex 72.34999847412109 29.3382682800293 81.13512420654297
  endloop
endfacet
facet normal -0.3826834261417389 0.9238795042037964 -1.88601986574066e-15
  outer loop
    vertex 71.69881439208984 24.39200019836426 81.13512420654297
    vertex 72.34999847412109 24.6617317199707 60.63512420654297
    vertex 71.69881439208984 24.39200019836426 60.63512420654297
  endloop
endfacet
facet normal -0.3826834261417389 0.9238795042037964 -1.88601986574066e-15
  outer loop
    vertex 72.34999847412109 24.6617317199707 60.63512420654297
    vertex 71.69881439208984 24.39200019836426 81.13512420654297
    vertex 72.34999847412109 24.6617317199707 81.13512420654297
  endloop
endfacet
facet normal 0.1305261850357056 0.9914448857307434 6.432862656932116e-16
  outer loop
    vertex 70.30118560791016 24.39200019836426 81.13512420654297
    vertex 71 24.29999923706055 60.63512420654297
    vertex 70.30118560791016 24.39200019836426 60.63512420654297
  endloop
endfacet
facet normal 0.1305261850357056 0.9914448857307434 6.432862656932116e-16
  outer loop
    vertex 71 24.29999923706055 60.63512420654297
    vertex 70.30118560791016 24.39200019836426 81.13512420654297
    vertex 71 24.29999923706055 81.13512420654297
  endloop
endfacet
facet normal 0.3826834261417389 0.9238795042037964 1.88601986574066e-15
  outer loop
    vertex 69.65000152587891 24.6617317199707 81.13512420654297
    vertex 70.30118560791016 24.39200019836426 60.63512420654297
    vertex 69.65000152587891 24.6617317199707 60.63512420654297
  endloop
endfacet
facet normal 0.3826834261417389 0.9238795042037964 1.88601986574066e-15
  outer loop
    vertex 70.30118560791016 24.39200019836426 60.63512420654297
    vertex 69.65000152587891 24.6617317199707 81.13512420654297
    vertex 70.30118560791016 24.39200019836426 81.13512420654297
  endloop
endfacet
facet normal -0.1305261850357056 0.9914448857307434 -6.432862656932116e-16
  outer loop
    vertex 71 24.29999923706055 81.13512420654297
    vertex 71.69881439208984 24.39200019836426 60.63512420654297
    vertex 71 24.29999923706055 60.63512420654297
  endloop
endfacet
facet normal -0.1305261850357056 0.9914448857307434 -6.432862656932116e-16
  outer loop
    vertex 71.69881439208984 24.39200019836426 60.63512420654297
    vertex 71 24.29999923706055 81.13512420654297
    vertex 71.69881439208984 24.39200019836426 81.13512420654297
  endloop
endfacet
facet normal 0.6087614297866821 -0.7933533191680908 3.000224368734385e-15
  outer loop
    vertex 69.65000152587891 29.3382682800293 81.13512420654297
    vertex 69.09081268310547 28.90918922424316 60.63512420654297
    vertex 69.65000152587891 29.3382682800293 60.63512420654297
  endloop
endfacet
facet normal 0.6087614297866821 -0.7933533191680908 3.000224368734385e-15
  outer loop
    vertex 69.09081268310547 28.90918922424316 60.63512420654297
    vertex 69.65000152587891 29.3382682800293 81.13512420654297
    vertex 69.09081268310547 28.90918922424316 81.13512420654297
  endloop
endfacet
facet normal 0.7933533191680908 -0.6087614297866821 3.909968459029842e-15
  outer loop
    vertex 69.09081268310547 28.90918922424316 60.63512420654297
    vertex 68.66172790527344 28.35000038146973 81.13512420654297
    vertex 68.66172790527344 28.35000038146973 60.63512420654297
  endloop
endfacet
facet normal 0.7933533191680908 -0.6087614297866821 3.909968459029842e-15
  outer loop
    vertex 68.66172790527344 28.35000038146973 81.13512420654297
    vertex 69.09081268310547 28.90918922424316 60.63512420654297
    vertex 69.09081268310547 28.90918922424316 81.13512420654297
  endloop
endfacet
facet normal 0.9238795042037964 -0.3826834261417389 4.553254830602172e-15
  outer loop
    vertex 68.66172790527344 28.35000038146973 60.63512420654297
    vertex 68.39199829101563 27.69881057739258 81.13512420654297
    vertex 68.39199829101563 27.69881057739258 60.63512420654297
  endloop
endfacet
facet normal 0.9238795042037964 -0.3826834261417389 4.553254830602172e-15
  outer loop
    vertex 68.39199829101563 27.69881057739258 81.13512420654297
    vertex 68.66172790527344 28.35000038146973 60.63512420654297
    vertex 68.66172790527344 28.35000038146973 81.13512420654297
  endloop
endfacet
facet normal -0.6087614297866821 0.7933533191680908 -3.000224368734385e-15
  outer loop
    vertex 72.34999847412109 24.6617317199707 81.13512420654297
    vertex 72.90918731689453 25.09081077575684 60.63512420654297
    vertex 72.34999847412109 24.6617317199707 60.63512420654297
  endloop
endfacet
facet normal -0.6087614297866821 0.7933533191680908 -3.000224368734385e-15
  outer loop
    vertex 72.90918731689453 25.09081077575684 60.63512420654297
    vertex 72.34999847412109 24.6617317199707 81.13512420654297
    vertex 72.90918731689453 25.09081077575684 81.13512420654297
  endloop
endfacet
facet normal -0.9238795042037964 0.3826834261417389 -4.553254830602172e-15
  outer loop
    vertex 73.60800170898438 26.30118942260742 81.13512420654297
    vertex 73.33827209472656 25.64999961853027 60.63512420654297
    vertex 73.33827209472656 25.64999961853027 81.13512420654297
  endloop
endfacet
facet normal -0.9238795042037964 0.3826834261417389 -4.553254830602172e-15
  outer loop
    vertex 73.33827209472656 25.64999961853027 60.63512420654297
    vertex 73.60800170898438 26.30118942260742 81.13512420654297
    vertex 73.60800170898438 26.30118942260742 60.63512420654297
  endloop
endfacet
facet normal -0.9238795042037964 -0.3826834261417389 -4.553254830602172e-15
  outer loop
    vertex 73.33827209472656 28.35000038146973 81.13512420654297
    vertex 73.60800170898438 27.69881057739258 60.63512420654297
    vertex 73.60800170898438 27.69881057739258 81.13512420654297
  endloop
endfacet
facet normal -0.9238795042037964 -0.3826834261417389 -4.553254830602172e-15
  outer loop
    vertex 73.60800170898438 27.69881057739258 60.63512420654297
    vertex 73.33827209472656 28.35000038146973 81.13512420654297
    vertex 73.33827209472656 28.35000038146973 60.63512420654297
  endloop
endfacet
facet normal -0.6087614297866821 -0.7933533191680908 -3.000224368734385e-15
  outer loop
    vertex 72.90918731689453 28.90918922424316 81.13512420654297
    vertex 72.34999847412109 29.3382682800293 60.63512420654297
    vertex 72.90918731689453 28.90918922424316 60.63512420654297
  endloop
endfacet
facet normal -0.6087614297866821 -0.7933533191680908 -3.000224368734385e-15
  outer loop
    vertex 72.34999847412109 29.3382682800293 60.63512420654297
    vertex 72.90918731689453 28.90918922424316 81.13512420654297
    vertex 72.34999847412109 29.3382682800293 81.13512420654297
  endloop
endfacet
facet normal -0.1305261850357056 -0.9914448857307434 -6.432862656932116e-16
  outer loop
    vertex 71.69881439208984 29.60799980163574 81.13512420654297
    vertex 71 29.70000076293945 60.63512420654297
    vertex 71.69881439208984 29.60799980163574 60.63512420654297
  endloop
endfacet
facet normal -0.1305261850357056 -0.9914448857307434 -6.432862656932116e-16
  outer loop
    vertex 71 29.70000076293945 60.63512420654297
    vertex 71.69881439208984 29.60799980163574 81.13512420654297
    vertex 71 29.70000076293945 81.13512420654297
  endloop
endfacet
facet normal 0.6087614297866821 0.7933533191680908 3.000224368734385e-15
  outer loop
    vertex 69.09081268310547 25.09081077575684 81.13512420654297
    vertex 69.65000152587891 24.6617317199707 60.63512420654297
    vertex 69.09081268310547 25.09081077575684 60.63512420654297
  endloop
endfacet
facet normal 0.6087614297866821 0.7933533191680908 3.000224368734385e-15
  outer loop
    vertex 69.65000152587891 24.6617317199707 60.63512420654297
    vertex 69.09081268310547 25.09081077575684 81.13512420654297
    vertex 69.65000152587891 24.6617317199707 81.13512420654297
  endloop
endfacet
facet normal 0.1305261850357056 -0.9914448857307434 6.432862656932116e-16
  outer loop
    vertex 71 29.70000076293945 81.13512420654297
    vertex 70.30118560791016 29.60799980163574 60.63512420654297
    vertex 71 29.70000076293945 60.63512420654297
  endloop
endfacet
facet normal 0.1305261850357056 -0.9914448857307434 6.432862656932116e-16
  outer loop
    vertex 70.30118560791016 29.60799980163574 60.63512420654297
    vertex 71 29.70000076293945 81.13512420654297
    vertex 70.30118560791016 29.60799980163574 81.13512420654297
  endloop
endfacet
facet normal 0.3826834261417389 -0.9238795042037964 1.88601986574066e-15
  outer loop
    vertex 70.30118560791016 29.60799980163574 81.13512420654297
    vertex 69.65000152587891 29.3382682800293 60.63512420654297
    vertex 70.30118560791016 29.60799980163574 60.63512420654297
  endloop
endfacet
facet normal 0.3826834261417389 -0.9238795042037964 1.88601986574066e-15
  outer loop
    vertex 69.65000152587891 29.3382682800293 60.63512420654297
    vertex 70.30118560791016 29.60799980163574 81.13512420654297
    vertex 69.65000152587891 29.3382682800293 81.13512420654297
  endloop
endfacet
facet normal -0.7933533191680908 0.6087614297866821 -3.909968459029842e-15
  outer loop
    vertex 73.33827209472656 25.64999961853027 81.13512420654297
    vertex 72.90918731689453 25.09081077575684 60.63512420654297
    vertex 72.90918731689453 25.09081077575684 81.13512420654297
  endloop
endfacet
facet normal -0.7933533191680908 0.6087614297866821 -3.909968459029842e-15
  outer loop
    vertex 72.90918731689453 25.09081077575684 60.63512420654297
    vertex 73.33827209472656 25.64999961853027 81.13512420654297
    vertex 73.33827209472656 25.64999961853027 60.63512420654297
  endloop
endfacet
facet normal -0.9914448857307434 0.1305261850357056 -4.886244234475045e-15
  outer loop
    vertex 73.69999694824219 27 81.13512420654297
    vertex 73.60800170898438 26.30118942260742 60.63512420654297
    vertex 73.60800170898438 26.30118942260742 81.13512420654297
  endloop
endfacet
facet normal -0.9914448857307434 0.1305261850357056 -4.886244234475045e-15
  outer loop
    vertex 73.60800170898438 26.30118942260742 60.63512420654297
    vertex 73.69999694824219 27 81.13512420654297
    vertex 73.69999694824219 27 60.63512420654297
  endloop
endfacet
facet normal -0.9914448857307434 -0.1305261850357056 -4.886244234475045e-15
  outer loop
    vertex 73.60800170898438 27.69881057739258 81.13512420654297
    vertex 73.69999694824219 27 60.63512420654297
    vertex 73.69999694824219 27 81.13512420654297
  endloop
endfacet
facet normal -0.9914448857307434 -0.1305261850357056 -4.886244234475045e-15
  outer loop
    vertex 73.69999694824219 27 60.63512420654297
    vertex 73.60800170898438 27.69881057739258 81.13512420654297
    vertex 73.60800170898438 27.69881057739258 60.63512420654297
  endloop
endfacet
facet normal 0.9914448857307434 -0.1305261850357056 4.886244234475045e-15
  outer loop
    vertex 68.39199829101563 27.69881057739258 60.63512420654297
    vertex 68.30000305175781 27 81.13512420654297
    vertex 68.30000305175781 27 60.63512420654297
  endloop
endfacet
facet normal 0.9914448857307434 -0.1305261850357056 4.886244234475045e-15
  outer loop
    vertex 68.30000305175781 27 81.13512420654297
    vertex 68.39199829101563 27.69881057739258 60.63512420654297
    vertex 68.39199829101563 27.69881057739258 81.13512420654297
  endloop
endfacet
facet normal 0.9914448857307434 0.1305261850357056 4.886244234475045e-15
  outer loop
    vertex 68.30000305175781 27 60.63512420654297
    vertex 68.39199829101563 26.30118942260742 81.13512420654297
    vertex 68.39199829101563 26.30118942260742 60.63512420654297
  endloop
endfacet
facet normal 0.9914448857307434 0.1305261850357056 4.886244234475045e-15
  outer loop
    vertex 68.39199829101563 26.30118942260742 81.13512420654297
    vertex 68.30000305175781 27 60.63512420654297
    vertex 68.30000305175781 27 81.13512420654297
  endloop
endfacet
facet normal 0.9238795042037964 0.3826834261417389 4.553254830602172e-15
  outer loop
    vertex 68.39199829101563 26.30118942260742 60.63512420654297
    vertex 68.66172790527344 25.64999961853027 81.13512420654297
    vertex 68.66172790527344 25.64999961853027 60.63512420654297
  endloop
endfacet
facet normal 0.9238795042037964 0.3826834261417389 4.553254830602172e-15
  outer loop
    vertex 68.66172790527344 25.64999961853027 81.13512420654297
    vertex 68.39199829101563 26.30118942260742 60.63512420654297
    vertex 68.39199829101563 26.30118942260742 81.13512420654297
  endloop
endfacet
facet normal 0.7933533191680908 0.6087614297866821 3.909968459029842e-15
  outer loop
    vertex 68.66172790527344 25.64999961853027 60.63512420654297
    vertex 69.09081268310547 25.09081077575684 81.13512420654297
    vertex 69.09081268310547 25.09081077575684 60.63512420654297
  endloop
endfacet
facet normal 0.7933533191680908 0.6087614297866821 3.909968459029842e-15
  outer loop
    vertex 69.09081268310547 25.09081077575684 81.13512420654297
    vertex 68.66172790527344 25.64999961853027 60.63512420654297
    vertex 68.66172790527344 25.64999961853027 81.13512420654297
  endloop
endfacet
facet normal -1.067757237284113e-31 1 -6.027571155956327e-16
  outer loop
    vertex -12 37 81.13512420654297
    vertex -2 37 60.63512420654297
    vertex -12 37 60.63512420654297
  endloop
endfacet
facet normal -1.067757237284113e-31 1 -6.027571155956327e-16
  outer loop
    vertex -2 37 60.63512420654297
    vertex -12 37 81.13512420654297
    vertex -2 37 61.13512420654297
  endloop
endfacet
facet normal -1.067757237284113e-31 1 -6.027571155956327e-16
  outer loop
    vertex -2 37 61.13512420654297
    vertex -12 37 81.13512420654297
    vertex -1.709125280380249 37 65.57301330566406
  endloop
endfacet
facet normal -1.067757237284113e-31 1 -6.027571155956327e-16
  outer loop
    vertex -1.709125280380249 37 65.57301330566406
    vertex -12 37 81.13512420654297
    vertex -0.8414781093597412 37 69.93496704101563
  endloop
endfacet
facet normal -1.067757237284113e-31 1 -6.027571155956327e-16
  outer loop
    vertex -0.8414781093597412 37 69.93496704101563
    vertex -12 37 81.13512420654297
    vertex 0.5880959033966064 37 74.1463623046875
  endloop
endfacet
facet normal -1.067757237284113e-31 1 -6.027571155956327e-16
  outer loop
    vertex 0.5880959033966064 37 74.1463623046875
    vertex -12 37 81.13512420654297
    vertex 2.555136203765869 37 78.13512420654297
  endloop
endfacet
facet normal -1.067757237284113e-31 1 -6.027571155956327e-16
  outer loop
    vertex 2.555136203765869 37 78.13512420654297
    vertex -12 37 81.13512420654297
    vertex -2.641016244888306 37 81.13512420654297
  endloop
endfacet
facet normal -1.067757237284113e-31 1 -6.027571155956327e-16
  outer loop
    vertex 2.555136203765869 37 78.13512420654297
    vertex -2.641016244888306 37 81.13512420654297
    vertex 5.025986194610596 37 81.8330078125
  endloop
endfacet
facet normal -1.067757237284113e-31 1 -6.027571155956327e-16
  outer loop
    vertex 5.025986194610596 37 81.8330078125
    vertex -2.641016244888306 37 81.13512420654297
    vertex 3.715728759765625 37 89.41939544677734
  endloop
endfacet
facet normal -1.067757237284113e-31 1 -6.027571155956327e-16
  outer loop
    vertex 5.025986194610596 37 81.8330078125
    vertex 3.715728759765625 37 89.41939544677734
    vertex 7.958369255065918 37 85.17675018310547
  endloop
endfacet
facet normal -1.067757237284113e-31 1 -6.027571155956327e-16
  outer loop
    vertex 7.958369255065918 37 85.17675018310547
    vertex 3.715728759765625 37 89.41939544677734
    vertex 11.30211162567139 37 88.10913848876953
  endloop
endfacet
facet normal -1.067757237284113e-31 1 -6.027571155956327e-16
  outer loop
    vertex 11.30211162567139 37 88.10913848876953
    vertex 3.715728759765625 37 89.41939544677734
    vertex 15 37 90.57998657226563
  endloop
endfacet
facet normal -1.067757237284113e-31 1 -6.027571155956327e-16
  outer loop
    vertex 15 37 90.57998657226563
    vertex 3.715728759765625 37 89.41939544677734
    vertex 12 37 95.77613830566406
  endloop
endfacet
facet normal -1.067757237284113e-31 1 -6.027571155956327e-16
  outer loop
    vertex 15 37 90.57998657226563
    vertex 12 37 95.77613830566406
    vertex 18.9887638092041 37 92.54702758789063
  endloop
endfacet
facet normal -1.067757237284113e-31 1 -6.027571155956327e-16
  outer loop
    vertex 18.9887638092041 37 92.54702758789063
    vertex 12 37 95.77613830566406
    vertex 23.20015335083008 37 93.97660064697266
  endloop
endfacet
facet normal -1.067757237284113e-31 1 -6.027571155956327e-16
  outer loop
    vertex 23.20015335083008 37 93.97660064697266
    vertex 12 37 95.77613830566406
    vertex 27.56210899353027 37 94.84424591064453
  endloop
endfacet
facet normal -1.067757237284113e-31 1 -6.027571155956327e-16
  outer loop
    vertex 27.56210899353027 37 94.84424591064453
    vertex 12 37 95.77613830566406
    vertex 32 37 95.13512420654297
  endloop
endfacet
facet normal -1.067757237284113e-31 1 -6.027571155956327e-16
  outer loop
    vertex 32 37 95.13512420654297
    vertex 12 37 95.77613830566406
    vertex 52 37 95.77613830566406
  endloop
endfacet
facet normal -1.067757237284113e-31 1 -6.027571155956327e-16
  outer loop
    vertex 52 37 95.77613830566406
    vertex 12 37 95.77613830566406
    vertex 42.35276031494141 37 99.77215576171875
  endloop
endfacet
facet normal -1.067757237284113e-31 1 -6.027571155956327e-16
  outer loop
    vertex 42.35276031494141 37 99.77215576171875
    vertex 12 37 95.77613830566406
    vertex 21.64723777770996 37 99.77215576171875
  endloop
endfacet
facet normal -1.067757237284113e-31 1 -6.027571155956327e-16
  outer loop
    vertex 42.35276031494141 37 99.77215576171875
    vertex 21.64723777770996 37 99.77215576171875
    vertex 32 37 101.135124206543
  endloop
endfacet
facet normal -1.067757237284113e-31 1 -6.027571155956327e-16
  outer loop
    vertex 58.97401428222656 37 81.8330078125
    vertex 66.64101409912109 37 81.13512420654297
    vertex 61.44486236572266 37 78.13512420654297
  endloop
endfacet
facet normal -1.067757237284113e-31 1 -6.027571155956327e-16
  outer loop
    vertex 66.64101409912109 37 81.13512420654297
    vertex 58.97401428222656 37 81.8330078125
    vertex 60.28427124023438 37 89.41939544677734
  endloop
endfacet
facet normal -1.067757237284113e-31 1 -6.027571155956327e-16
  outer loop
    vertex 60.28427124023438 37 89.41939544677734
    vertex 58.97401428222656 37 81.8330078125
    vertex 56.04162979125977 37 85.17675018310547
  endloop
endfacet
facet normal -1.067757237284113e-31 1 -6.027571155956327e-16
  outer loop
    vertex 60.28427124023438 37 89.41939544677734
    vertex 56.04162979125977 37 85.17675018310547
    vertex 52.6978874206543 37 88.10913848876953
  endloop
endfacet
facet normal -1.067757237284113e-31 1 -6.027571155956327e-16
  outer loop
    vertex 60.28427124023438 37 89.41939544677734
    vertex 52.6978874206543 37 88.10913848876953
    vertex 49 37 90.57998657226563
  endloop
endfacet
facet normal -1.067757237284113e-31 1 -6.027571155956327e-16
  outer loop
    vertex 60.28427124023438 37 89.41939544677734
    vertex 49 37 90.57998657226563
    vertex 52 37 95.77613830566406
  endloop
endfacet
facet normal -1.067757237284113e-31 1 -6.027571155956327e-16
  outer loop
    vertex 52 37 95.77613830566406
    vertex 49 37 90.57998657226563
    vertex 45.01123809814453 37 92.54702758789063
  endloop
endfacet
facet normal -1.067757237284113e-31 1 -6.027571155956327e-16
  outer loop
    vertex 52 37 95.77613830566406
    vertex 45.01123809814453 37 92.54702758789063
    vertex 40.79984664916992 37 93.97660064697266
  endloop
endfacet
facet normal -1.067757237284113e-31 1 -6.027571155956327e-16
  outer loop
    vertex 52 37 95.77613830566406
    vertex 40.79984664916992 37 93.97660064697266
    vertex 36.43788909912109 37 94.84424591064453
  endloop
endfacet
facet normal -1.067757237284113e-31 1 -6.027571155956327e-16
  outer loop
    vertex 52 37 95.77613830566406
    vertex 36.43788909912109 37 94.84424591064453
    vertex 32 37 95.13512420654297
  endloop
endfacet
facet normal -1.067757237284113e-31 1 -6.027571155956327e-16
  outer loop
    vertex 66 37 61.13512420654297
    vertex 76 37 60.63512420654297
    vertex 66 37 60.63512420654297
  endloop
endfacet
facet normal -1.067757237284113e-31 1 -6.027571155956327e-16
  outer loop
    vertex 76 37 60.63512420654297
    vertex 66 37 61.13512420654297
    vertex 76 37 81.13512420654297
  endloop
endfacet
facet normal -1.067757237284113e-31 1 -6.027571155956327e-16
  outer loop
    vertex 76 37 81.13512420654297
    vertex 66 37 61.13512420654297
    vertex 65.70912170410156 37 65.57301330566406
  endloop
endfacet
facet normal -1.067757237284113e-31 1 -6.027571155956327e-16
  outer loop
    vertex 76 37 81.13512420654297
    vertex 65.70912170410156 37 65.57301330566406
    vertex 64.84147644042969 37 69.93496704101563
  endloop
endfacet
facet normal -1.067757237284113e-31 1 -6.027571155956327e-16
  outer loop
    vertex 76 37 81.13512420654297
    vertex 64.84147644042969 37 69.93496704101563
    vertex 63.41190338134766 37 74.1463623046875
  endloop
endfacet
facet normal -1.067757237284113e-31 1 -6.027571155956327e-16
  outer loop
    vertex 76 37 81.13512420654297
    vertex 63.41190338134766 37 74.1463623046875
    vertex 61.44486236572266 37 78.13512420654297
  endloop
endfacet
facet normal -1.067757237284113e-31 1 -6.027571155956327e-16
  outer loop
    vertex 76 37 81.13512420654297
    vertex 61.44486236572266 37 78.13512420654297
    vertex 66.64101409912109 37 81.13512420654297
  endloop
endfacet
facet normal -0.8968727588653564 -0 -0.4422886967658997
  outer loop
    vertex 61.44486236572266 37 78.13512420654297
    vertex 63.41190338134766 17 74.1463623046875
    vertex 61.44486236572266 17 78.13512420654297
  endloop
endfacet
facet normal -0.8968727588653564 -0 -0.4422886967658997
  outer loop
    vertex 63.41190338134766 17 74.1463623046875
    vertex 61.44486236572266 37 78.13512420654297
    vertex 63.41190338134766 37 74.1463623046875
  endloop
endfacet
facet normal -0.1950903236865997 -0 -0.9807852506637573
  outer loop
    vertex 40.79984664916992 37 93.97660064697266
    vertex 36.43788909912109 17 94.84424591064453
    vertex 36.43788909912109 37 94.84424591064453
  endloop
endfacet
facet normal -0.1950903236865997 -0 -0.9807852506637573
  outer loop
    vertex 36.43788909912109 17 94.84424591064453
    vertex 40.79984664916992 37 93.97660064697266
    vertex 40.79984664916992 17 93.97660064697266
  endloop
endfacet
facet normal 0.751839816570282 0 -0.659345805644989
  outer loop
    vertex 5.025986194610596 37 81.8330078125
    vertex 7.958369255065918 17 85.17675018310547
    vertex 5.025986194610596 17 81.8330078125
  endloop
endfacet
facet normal 0.751839816570282 0 -0.659345805644989
  outer loop
    vertex 7.958369255065918 17 85.17675018310547
    vertex 5.025986194610596 37 81.8330078125
    vertex 7.958369255065918 37 85.17675018310547
  endloop
endfacet
facet normal -0.5555702447891235 -0 -0.8314695954322815
  outer loop
    vertex 52.6978874206543 37 88.10913848876953
    vertex 49 17 90.57998657226563
    vertex 49 37 90.57998657226563
  endloop
endfacet
facet normal -0.5555702447891235 -0 -0.8314695954322815
  outer loop
    vertex 49 17 90.57998657226563
    vertex 52.6978874206543 37 88.10913848876953
    vertex 52.6978874206543 17 88.10913848876953
  endloop
endfacet
facet normal 0.9807852506637573 0 -0.1950903236865997
  outer loop
    vertex -1.709125280380249 37 65.57301330566406
    vertex -0.8414781093597412 17 69.93496704101563
    vertex -1.709125280380249 17 65.57301330566406
  endloop
endfacet
facet normal 0.9807852506637573 0 -0.1950903236865997
  outer loop
    vertex -0.8414781093597412 17 69.93496704101563
    vertex -1.709125280380249 37 65.57301330566406
    vertex -0.8414781093597412 37 69.93496704101563
  endloop
endfacet
facet normal 0.4422886967658997 0 -0.8968727588653564
  outer loop
    vertex 18.9887638092041 37 92.54702758789063
    vertex 15 17 90.57998657226563
    vertex 15 37 90.57998657226563
  endloop
endfacet
facet normal 0.4422886967658997 0 -0.8968727588653564
  outer loop
    vertex 15 17 90.57998657226563
    vertex 18.9887638092041 37 92.54702758789063
    vertex 18.9887638092041 17 92.54702758789063
  endloop
endfacet
facet normal -0.751839816570282 -0 -0.659345805644989
  outer loop
    vertex 56.04162979125977 37 85.17675018310547
    vertex 58.97401428222656 17 81.8330078125
    vertex 56.04162979125977 17 85.17675018310547
  endloop
endfacet
facet normal -0.751839816570282 -0 -0.659345805644989
  outer loop
    vertex 58.97401428222656 17 81.8330078125
    vertex 56.04162979125977 37 85.17675018310547
    vertex 58.97401428222656 37 81.8330078125
  endloop
endfacet
facet normal -0.9469301104545593 -0 -0.3214394748210907
  outer loop
    vertex 63.41190338134766 37 74.1463623046875
    vertex 64.84147644042969 17 69.93496704101563
    vertex 63.41190338134766 17 74.1463623046875
  endloop
endfacet
facet normal -0.9469301104545593 -0 -0.3214394748210907
  outer loop
    vertex 64.84147644042969 17 69.93496704101563
    vertex 63.41190338134766 37 74.1463623046875
    vertex 64.84147644042969 37 69.93496704101563
  endloop
endfacet
facet normal 0.9469301104545593 0 -0.3214394748210907
  outer loop
    vertex -0.8414781093597412 37 69.93496704101563
    vertex 0.5880959033966064 17 74.1463623046875
    vertex -0.8414781093597412 17 69.93496704101563
  endloop
endfacet
facet normal 0.9469301104545593 0 -0.3214394748210907
  outer loop
    vertex 0.5880959033966064 17 74.1463623046875
    vertex -0.8414781093597412 37 69.93496704101563
    vertex 0.5880959033966064 37 74.1463623046875
  endloop
endfacet
facet normal 0.659345805644989 0 -0.751839816570282
  outer loop
    vertex 11.30211162567139 37 88.10913848876953
    vertex 7.958369255065918 17 85.17675018310547
    vertex 7.958369255065918 37 85.17675018310547
  endloop
endfacet
facet normal 0.659345805644989 0 -0.751839816570282
  outer loop
    vertex 7.958369255065918 17 85.17675018310547
    vertex 11.30211162567139 37 88.10913848876953
    vertex 11.30211162567139 17 88.10913848876953
  endloop
endfacet
facet normal -0.4422886967658997 -0 -0.8968727588653564
  outer loop
    vertex 49 37 90.57998657226563
    vertex 45.01123809814453 17 92.54702758789063
    vertex 45.01123809814453 37 92.54702758789063
  endloop
endfacet
facet normal -0.4422886967658997 -0 -0.8968727588653564
  outer loop
    vertex 45.01123809814453 17 92.54702758789063
    vertex 49 37 90.57998657226563
    vertex 49 17 90.57998657226563
  endloop
endfacet
facet normal 0.1950903236865997 0 -0.9807852506637573
  outer loop
    vertex 27.56210899353027 37 94.84424591064453
    vertex 23.20015335083008 17 93.97660064697266
    vertex 23.20015335083008 37 93.97660064697266
  endloop
endfacet
facet normal 0.1950903236865997 0 -0.9807852506637573
  outer loop
    vertex 23.20015335083008 17 93.97660064697266
    vertex 27.56210899353027 37 94.84424591064453
    vertex 27.56210899353027 17 94.84424591064453
  endloop
endfacet
facet normal 0.06540312618017197 0 -0.9978589415550232
  outer loop
    vertex 32 37 95.13512420654297
    vertex 27.56210899353027 17 94.84424591064453
    vertex 27.56210899353027 37 94.84424591064453
  endloop
endfacet
facet normal 0.06540312618017197 0 -0.9978589415550232
  outer loop
    vertex 27.56210899353027 17 94.84424591064453
    vertex 32 37 95.13512420654297
    vertex 32 17 95.13512420654297
  endloop
endfacet
facet normal 0.3214394748210907 0 -0.9469301104545593
  outer loop
    vertex 23.20015335083008 37 93.97660064697266
    vertex 18.9887638092041 17 92.54702758789063
    vertex 18.9887638092041 37 92.54702758789063
  endloop
endfacet
facet normal 0.3214394748210907 0 -0.9469301104545593
  outer loop
    vertex 18.9887638092041 17 92.54702758789063
    vertex 23.20015335083008 37 93.97660064697266
    vertex 23.20015335083008 17 93.97660064697266
  endloop
endfacet
facet normal -0.8314695954322815 -0 -0.5555702447891235
  outer loop
    vertex 58.97401428222656 37 81.8330078125
    vertex 61.44486236572266 17 78.13512420654297
    vertex 58.97401428222656 17 81.8330078125
  endloop
endfacet
facet normal -0.8314695954322815 -0 -0.5555702447891235
  outer loop
    vertex 61.44486236572266 17 78.13512420654297
    vertex 58.97401428222656 37 81.8330078125
    vertex 61.44486236572266 37 78.13512420654297
  endloop
endfacet
facet normal -0.9807852506637573 -0 -0.1950903236865997
  outer loop
    vertex 64.84147644042969 37 69.93496704101563
    vertex 65.70912170410156 17 65.57301330566406
    vertex 64.84147644042969 17 69.93496704101563
  endloop
endfacet
facet normal -0.9807852506637573 -0 -0.1950903236865997
  outer loop
    vertex 65.70912170410156 17 65.57301330566406
    vertex 64.84147644042969 37 69.93496704101563
    vertex 65.70912170410156 37 65.57301330566406
  endloop
endfacet
facet normal 0.5555702447891235 0 -0.8314695954322815
  outer loop
    vertex 15 37 90.57998657226563
    vertex 11.30211162567139 17 88.10913848876953
    vertex 11.30211162567139 37 88.10913848876953
  endloop
endfacet
facet normal 0.5555702447891235 0 -0.8314695954322815
  outer loop
    vertex 11.30211162567139 17 88.10913848876953
    vertex 15 37 90.57998657226563
    vertex 15 17 90.57998657226563
  endloop
endfacet
facet normal 0.8968727588653564 0 -0.4422886967658997
  outer loop
    vertex 0.5880959033966064 37 74.1463623046875
    vertex 2.555136203765869 17 78.13512420654297
    vertex 0.5880959033966064 17 74.1463623046875
  endloop
endfacet
facet normal 0.8968727588653564 0 -0.4422886967658997
  outer loop
    vertex 2.555136203765869 17 78.13512420654297
    vertex 0.5880959033966064 37 74.1463623046875
    vertex 2.555136203765869 37 78.13512420654297
  endloop
endfacet
facet normal -0.659345805644989 -0 -0.751839816570282
  outer loop
    vertex 56.04162979125977 37 85.17675018310547
    vertex 52.6978874206543 17 88.10913848876953
    vertex 52.6978874206543 37 88.10913848876953
  endloop
endfacet
facet normal -0.659345805644989 -0 -0.751839816570282
  outer loop
    vertex 52.6978874206543 17 88.10913848876953
    vertex 56.04162979125977 37 85.17675018310547
    vertex 56.04162979125977 17 85.17675018310547
  endloop
endfacet
facet normal -0.06540312618017197 -0 -0.9978589415550232
  outer loop
    vertex 36.43788909912109 37 94.84424591064453
    vertex 32 17 95.13512420654297
    vertex 32 37 95.13512420654297
  endloop
endfacet
facet normal -0.06540312618017197 -0 -0.9978589415550232
  outer loop
    vertex 32 17 95.13512420654297
    vertex 36.43788909912109 37 94.84424591064453
    vertex 36.43788909912109 17 94.84424591064453
  endloop
endfacet
facet normal 0.8314695954322815 0 -0.5555702447891235
  outer loop
    vertex 2.555136203765869 37 78.13512420654297
    vertex 5.025986194610596 17 81.8330078125
    vertex 2.555136203765869 17 78.13512420654297
  endloop
endfacet
facet normal 0.8314695954322815 0 -0.5555702447891235
  outer loop
    vertex 5.025986194610596 17 81.8330078125
    vertex 2.555136203765869 37 78.13512420654297
    vertex 5.025986194610596 37 81.8330078125
  endloop
endfacet
facet normal -0.9978589415550232 -0 -0.06540312618017197
  outer loop
    vertex 65.70912170410156 37 65.57301330566406
    vertex 66 17 61.13512420654297
    vertex 65.70912170410156 17 65.57301330566406
  endloop
endfacet
facet normal -0.9978589415550232 -0 -0.06540312618017197
  outer loop
    vertex 66 17 61.13512420654297
    vertex 65.70912170410156 37 65.57301330566406
    vertex 66 37 61.13512420654297
  endloop
endfacet
facet normal -0.3214394748210907 -0 -0.9469301104545593
  outer loop
    vertex 45.01123809814453 37 92.54702758789063
    vertex 40.79984664916992 17 93.97660064697266
    vertex 40.79984664916992 37 93.97660064697266
  endloop
endfacet
facet normal -0.3214394748210907 -0 -0.9469301104545593
  outer loop
    vertex 40.79984664916992 17 93.97660064697266
    vertex 45.01123809814453 37 92.54702758789063
    vertex 45.01123809814453 17 92.54702758789063
  endloop
endfacet
facet normal -0.3826834261417389 -0.9238795042037964 -1.242733600047448e-15
  outer loop
    vertex -5.650000095367432 29.3382682800293 81.13512420654297
    vertex -6.301188468933105 29.60799980163574 60.63512420654297
    vertex -5.650000095367432 29.3382682800293 60.63512420654297
  endloop
endfacet
facet normal -0.3826834261417389 -0.9238795042037964 -1.242733600047448e-15
  outer loop
    vertex -6.301188468933105 29.60799980163574 60.63512420654297
    vertex -5.650000095367432 29.3382682800293 81.13512420654297
    vertex -6.301188468933105 29.60799980163574 81.13512420654297
  endloop
endfacet
facet normal -0.1305261850357056 -0.9914448857307434 -4.23873286256181e-16
  outer loop
    vertex -6.301188468933105 29.60799980163574 81.13512420654297
    vertex -7 29.70000076293945 60.63512420654297
    vertex -6.301188468933105 29.60799980163574 60.63512420654297
  endloop
endfacet
facet normal -0.1305261850357056 -0.9914448857307434 -4.23873286256181e-16
  outer loop
    vertex -7 29.70000076293945 60.63512420654297
    vertex -6.301188468933105 29.60799980163574 81.13512420654297
    vertex -7 29.70000076293945 81.13512420654297
  endloop
endfacet
facet normal 0.1305261850357056 -0.9914448857307434 4.23873286256181e-16
  outer loop
    vertex -7 29.70000076293945 81.13512420654297
    vertex -7.698811531066895 29.60799980163574 60.63512420654297
    vertex -7 29.70000076293945 60.63512420654297
  endloop
endfacet
facet normal 0.1305261850357056 -0.9914448857307434 4.23873286256181e-16
  outer loop
    vertex -7.698811531066895 29.60799980163574 60.63512420654297
    vertex -7 29.70000076293945 81.13512420654297
    vertex -7.698811531066895 29.60799980163574 81.13512420654297
  endloop
endfacet
facet normal 0.3826834261417389 -0.9238795042037964 1.242733600047448e-15
  outer loop
    vertex -7.698811531066895 29.60799980163574 81.13512420654297
    vertex -8.350000381469727 29.3382682800293 60.63512420654297
    vertex -7.698811531066895 29.60799980163574 60.63512420654297
  endloop
endfacet
facet normal 0.3826834261417389 -0.9238795042037964 1.242733600047448e-15
  outer loop
    vertex -8.350000381469727 29.3382682800293 60.63512420654297
    vertex -7.698811531066895 29.60799980163574 81.13512420654297
    vertex -8.350000381469727 29.3382682800293 81.13512420654297
  endloop
endfacet
facet normal 0.6087614297866821 -0.7933533191680908 1.976903748123968e-15
  outer loop
    vertex -8.350000381469727 29.3382682800293 81.13512420654297
    vertex -8.909188270568848 28.90918922424316 60.63512420654297
    vertex -8.350000381469727 29.3382682800293 60.63512420654297
  endloop
endfacet
facet normal 0.6087614297866821 -0.7933533191680908 1.976903748123968e-15
  outer loop
    vertex -8.909188270568848 28.90918922424316 60.63512420654297
    vertex -8.350000381469727 29.3382682800293 81.13512420654297
    vertex -8.909188270568848 28.90918922424316 81.13512420654297
  endloop
endfacet
facet normal 0.7933533191680908 -0.6087614297866821 2.576351082478204e-15
  outer loop
    vertex -8.909188270568848 28.90918922424316 60.63512420654297
    vertex -9.338268280029297 28.35000038146973 81.13512420654297
    vertex -9.338268280029297 28.35000038146973 60.63512420654297
  endloop
endfacet
facet normal 0.7933533191680908 -0.6087614297866821 2.576351082478204e-15
  outer loop
    vertex -9.338268280029297 28.35000038146973 81.13512420654297
    vertex -8.909188270568848 28.90918922424316 60.63512420654297
    vertex -8.909188270568848 28.90918922424316 81.13512420654297
  endloop
endfacet
facet normal 0.9914448857307434 -0.1305261850357056 3.219637242292297e-15
  outer loop
    vertex -9.607999801635742 27.69881057739258 60.63512420654297
    vertex -9.699999809265137 27 81.13512420654297
    vertex -9.699999809265137 27 60.63512420654297
  endloop
endfacet
facet normal 0.9914448857307434 -0.1305261850357056 3.219637242292297e-15
  outer loop
    vertex -9.699999809265137 27 81.13512420654297
    vertex -9.607999801635742 27.69881057739258 60.63512420654297
    vertex -9.607999801635742 27.69881057739258 81.13512420654297
  endloop
endfacet
facet normal 0.9238795042037964 -0.3826834261417389 3.000224368734385e-15
  outer loop
    vertex -9.338268280029297 28.35000038146973 60.63512420654297
    vertex -9.607999801635742 27.69881057739258 81.13512420654297
    vertex -9.607999801635742 27.69881057739258 60.63512420654297
  endloop
endfacet
facet normal 0.9238795042037964 -0.3826834261417389 3.000224368734385e-15
  outer loop
    vertex -9.607999801635742 27.69881057739258 81.13512420654297
    vertex -9.338268280029297 28.35000038146973 60.63512420654297
    vertex -9.338268280029297 28.35000038146973 81.13512420654297
  endloop
endfacet
facet normal -0.1305261850357056 0.9914448857307434 -4.23873286256181e-16
  outer loop
    vertex -7 24.29999923706055 81.13512420654297
    vertex -6.301188468933105 24.39200019836426 60.63512420654297
    vertex -7 24.29999923706055 60.63512420654297
  endloop
endfacet
facet normal -0.1305261850357056 0.9914448857307434 -4.23873286256181e-16
  outer loop
    vertex -6.301188468933105 24.39200019836426 60.63512420654297
    vertex -7 24.29999923706055 81.13512420654297
    vertex -6.301188468933105 24.39200019836426 81.13512420654297
  endloop
endfacet
facet normal 0.9914448857307434 0.1305261850357056 3.219637242292297e-15
  outer loop
    vertex -9.699999809265137 27 60.63512420654297
    vertex -9.607999801635742 26.30118942260742 81.13512420654297
    vertex -9.607999801635742 26.30118942260742 60.63512420654297
  endloop
endfacet
facet normal 0.9914448857307434 0.1305261850357056 3.219637242292297e-15
  outer loop
    vertex -9.607999801635742 26.30118942260742 81.13512420654297
    vertex -9.699999809265137 27 60.63512420654297
    vertex -9.699999809265137 27 81.13512420654297
  endloop
endfacet
facet normal -0.9238795042037964 -0.3826834261417389 -3.000224368734385e-15
  outer loop
    vertex -4.661731243133545 28.35000038146973 81.13512420654297
    vertex -4.392000198364258 27.69881057739258 60.63512420654297
    vertex -4.392000198364258 27.69881057739258 81.13512420654297
  endloop
endfacet
facet normal -0.9238795042037964 -0.3826834261417389 -3.000224368734385e-15
  outer loop
    vertex -4.392000198364258 27.69881057739258 60.63512420654297
    vertex -4.661731243133545 28.35000038146973 81.13512420654297
    vertex -4.661731243133545 28.35000038146973 60.63512420654297
  endloop
endfacet
facet normal 0.3826834261417389 0.9238795042037964 1.242733600047448e-15
  outer loop
    vertex -8.350000381469727 24.6617317199707 81.13512420654297
    vertex -7.698811531066895 24.39200019836426 60.63512420654297
    vertex -8.350000381469727 24.6617317199707 60.63512420654297
  endloop
endfacet
facet normal 0.3826834261417389 0.9238795042037964 1.242733600047448e-15
  outer loop
    vertex -7.698811531066895 24.39200019836426 60.63512420654297
    vertex -8.350000381469727 24.6617317199707 81.13512420654297
    vertex -7.698811531066895 24.39200019836426 81.13512420654297
  endloop
endfacet
facet normal 0.7933533191680908 0.6087614297866821 2.576351082478204e-15
  outer loop
    vertex -9.338268280029297 25.64999961853027 60.63512420654297
    vertex -8.909188270568848 25.09081077575684 81.13512420654297
    vertex -8.909188270568848 25.09081077575684 60.63512420654297
  endloop
endfacet
facet normal 0.7933533191680908 0.6087614297866821 2.576351082478204e-15
  outer loop
    vertex -8.909188270568848 25.09081077575684 81.13512420654297
    vertex -9.338268280029297 25.64999961853027 60.63512420654297
    vertex -9.338268280029297 25.64999961853027 81.13512420654297
  endloop
endfacet
facet normal 0.6087614297866821 0.7933533191680908 1.976903748123968e-15
  outer loop
    vertex -8.909188270568848 25.09081077575684 81.13512420654297
    vertex -8.350000381469727 24.6617317199707 60.63512420654297
    vertex -8.909188270568848 25.09081077575684 60.63512420654297
  endloop
endfacet
facet normal 0.6087614297866821 0.7933533191680908 1.976903748123968e-15
  outer loop
    vertex -8.350000381469727 24.6617317199707 60.63512420654297
    vertex -8.909188270568848 25.09081077575684 81.13512420654297
    vertex -8.350000381469727 24.6617317199707 81.13512420654297
  endloop
endfacet
facet normal -0.9914448857307434 -0.1305261850357056 -3.219637242292297e-15
  outer loop
    vertex -4.392000198364258 27.69881057739258 81.13512420654297
    vertex -4.300000190734863 27 60.63512420654297
    vertex -4.300000190734863 27 81.13512420654297
  endloop
endfacet
facet normal -0.9914448857307434 -0.1305261850357056 -3.219637242292297e-15
  outer loop
    vertex -4.300000190734863 27 60.63512420654297
    vertex -4.392000198364258 27.69881057739258 81.13512420654297
    vertex -4.392000198364258 27.69881057739258 60.63512420654297
  endloop
endfacet
facet normal -0.6087614297866821 -0.7933533191680908 -1.976903748123968e-15
  outer loop
    vertex -5.090811729431152 28.90918922424316 81.13512420654297
    vertex -5.650000095367432 29.3382682800293 60.63512420654297
    vertex -5.090811729431152 28.90918922424316 60.63512420654297
  endloop
endfacet
facet normal -0.6087614297866821 -0.7933533191680908 -1.976903748123968e-15
  outer loop
    vertex -5.650000095367432 29.3382682800293 60.63512420654297
    vertex -5.090811729431152 28.90918922424316 81.13512420654297
    vertex -5.650000095367432 29.3382682800293 81.13512420654297
  endloop
endfacet
facet normal -0.3826834261417389 0.9238795042037964 -1.242733600047448e-15
  outer loop
    vertex -6.301188468933105 24.39200019836426 81.13512420654297
    vertex -5.650000095367432 24.6617317199707 60.63512420654297
    vertex -6.301188468933105 24.39200019836426 60.63512420654297
  endloop
endfacet
facet normal -0.3826834261417389 0.9238795042037964 -1.242733600047448e-15
  outer loop
    vertex -5.650000095367432 24.6617317199707 60.63512420654297
    vertex -6.301188468933105 24.39200019836426 81.13512420654297
    vertex -5.650000095367432 24.6617317199707 81.13512420654297
  endloop
endfacet
facet normal -0.9238795042037964 0.3826834261417389 -3.000224368734385e-15
  outer loop
    vertex -4.392000198364258 26.30118942260742 81.13512420654297
    vertex -4.661731243133545 25.64999961853027 60.63512420654297
    vertex -4.661731243133545 25.64999961853027 81.13512420654297
  endloop
endfacet
facet normal -0.9238795042037964 0.3826834261417389 -3.000224368734385e-15
  outer loop
    vertex -4.661731243133545 25.64999961853027 60.63512420654297
    vertex -4.392000198364258 26.30118942260742 81.13512420654297
    vertex -4.392000198364258 26.30118942260742 60.63512420654297
  endloop
endfacet
facet normal 0.9238795042037964 0.3826834261417389 3.000224368734385e-15
  outer loop
    vertex -9.607999801635742 26.30118942260742 60.63512420654297
    vertex -9.338268280029297 25.64999961853027 81.13512420654297
    vertex -9.338268280029297 25.64999961853027 60.63512420654297
  endloop
endfacet
facet normal 0.9238795042037964 0.3826834261417389 3.000224368734385e-15
  outer loop
    vertex -9.338268280029297 25.64999961853027 81.13512420654297
    vertex -9.607999801635742 26.30118942260742 60.63512420654297
    vertex -9.607999801635742 26.30118942260742 81.13512420654297
  endloop
endfacet
facet normal 0.1305261850357056 0.9914448857307434 4.23873286256181e-16
  outer loop
    vertex -7.698811531066895 24.39200019836426 81.13512420654297
    vertex -7 24.29999923706055 60.63512420654297
    vertex -7.698811531066895 24.39200019836426 60.63512420654297
  endloop
endfacet
facet normal 0.1305261850357056 0.9914448857307434 4.23873286256181e-16
  outer loop
    vertex -7 24.29999923706055 60.63512420654297
    vertex -7.698811531066895 24.39200019836426 81.13512420654297
    vertex -7 24.29999923706055 81.13512420654297
  endloop
endfacet
facet normal -0.6087614297866821 0.7933533191680908 -1.976903748123968e-15
  outer loop
    vertex -5.650000095367432 24.6617317199707 81.13512420654297
    vertex -5.090811729431152 25.09081077575684 60.63512420654297
    vertex -5.650000095367432 24.6617317199707 60.63512420654297
  endloop
endfacet
facet normal -0.6087614297866821 0.7933533191680908 -1.976903748123968e-15
  outer loop
    vertex -5.090811729431152 25.09081077575684 60.63512420654297
    vertex -5.650000095367432 24.6617317199707 81.13512420654297
    vertex -5.090811729431152 25.09081077575684 81.13512420654297
  endloop
endfacet
facet normal -0.7933533191680908 0.6087614297866821 -2.576351082478204e-15
  outer loop
    vertex -4.661731243133545 25.64999961853027 81.13512420654297
    vertex -5.090811729431152 25.09081077575684 60.63512420654297
    vertex -5.090811729431152 25.09081077575684 81.13512420654297
  endloop
endfacet
facet normal -0.7933533191680908 0.6087614297866821 -2.576351082478204e-15
  outer loop
    vertex -5.090811729431152 25.09081077575684 60.63512420654297
    vertex -4.661731243133545 25.64999961853027 81.13512420654297
    vertex -4.661731243133545 25.64999961853027 60.63512420654297
  endloop
endfacet
facet normal -0.9914448857307434 0.1305261850357056 -3.219637242292297e-15
  outer loop
    vertex -4.300000190734863 27 81.13512420654297
    vertex -4.392000198364258 26.30118942260742 60.63512420654297
    vertex -4.392000198364258 26.30118942260742 81.13512420654297
  endloop
endfacet
facet normal -0.9914448857307434 0.1305261850357056 -3.219637242292297e-15
  outer loop
    vertex -4.392000198364258 26.30118942260742 60.63512420654297
    vertex -4.300000190734863 27 81.13512420654297
    vertex -4.300000190734863 27 60.63512420654297
  endloop
endfacet
facet normal -0.7933533191680908 -0.6087614297866821 -2.576351082478204e-15
  outer loop
    vertex -5.090811729431152 28.90918922424316 81.13512420654297
    vertex -4.661731243133545 28.35000038146973 60.63512420654297
    vertex -4.661731243133545 28.35000038146973 81.13512420654297
  endloop
endfacet
facet normal -0.7933533191680908 -0.6087614297866821 -2.576351082478204e-15
  outer loop
    vertex -4.661731243133545 28.35000038146973 60.63512420654297
    vertex -5.090811729431152 28.90918922424316 81.13512420654297
    vertex -5.090811729431152 28.90918922424316 60.63512420654297
  endloop
endfacet
facet normal -2.738698711104884e-15 -2.1821481162847e-16 1
  outer loop
    vertex -12 17 81.13512420654297
    vertex -9.607999801635742 26.30118942260742 81.13512420654297
    vertex -9.699999809265137 27 81.13512420654297
  endloop
endfacet
facet normal -2.738698711104884e-15 -2.1821481162847e-16 1
  outer loop
    vertex -9.607999801635742 26.30118942260742 81.13512420654297
    vertex -12 17 81.13512420654297
    vertex -9.338268280029297 25.64999961853027 81.13512420654297
  endloop
endfacet
facet normal -2.738698711104884e-15 -2.1821481162847e-16 1
  outer loop
    vertex -9.338268280029297 25.64999961853027 81.13512420654297
    vertex -12 17 81.13512420654297
    vertex -8.909188270568848 25.09081077575684 81.13512420654297
  endloop
endfacet
facet normal -2.738698711104884e-15 -2.1821481162847e-16 1
  outer loop
    vertex -8.909188270568848 25.09081077575684 81.13512420654297
    vertex -12 17 81.13512420654297
    vertex -2.641016244888306 17 81.13512420654297
  endloop
endfacet
facet normal -2.738698711104884e-15 -2.1821481162847e-16 1
  outer loop
    vertex -8.909188270568848 25.09081077575684 81.13512420654297
    vertex -2.641016244888306 17 81.13512420654297
    vertex -8.350000381469727 24.6617317199707 81.13512420654297
  endloop
endfacet
facet normal -2.738698711104884e-15 -2.1821481162847e-16 1
  outer loop
    vertex -8.350000381469727 24.6617317199707 81.13512420654297
    vertex -2.641016244888306 17 81.13512420654297
    vertex -7.698811531066895 24.39200019836426 81.13512420654297
  endloop
endfacet
facet normal -2.738698711104884e-15 -2.1821481162847e-16 1
  outer loop
    vertex -7.698811531066895 24.39200019836426 81.13512420654297
    vertex -2.641016244888306 17 81.13512420654297
    vertex -7 24.29999923706055 81.13512420654297
  endloop
endfacet
facet normal -2.738698711104884e-15 -2.1821481162847e-16 1
  outer loop
    vertex -7 24.29999923706055 81.13512420654297
    vertex -2.641016244888306 17 81.13512420654297
    vertex -6.301188468933105 24.39200019836426 81.13512420654297
  endloop
endfacet
facet normal -2.738698711104884e-15 -2.1821481162847e-16 1
  outer loop
    vertex -6.301188468933105 24.39200019836426 81.13512420654297
    vertex -2.641016244888306 17 81.13512420654297
    vertex -5.650000095367432 24.6617317199707 81.13512420654297
  endloop
endfacet
facet normal -2.738698711104884e-15 -2.1821481162847e-16 1
  outer loop
    vertex -5.650000095367432 24.6617317199707 81.13512420654297
    vertex -2.641016244888306 17 81.13512420654297
    vertex -5.090811729431152 25.09081077575684 81.13512420654297
  endloop
endfacet
facet normal -2.738698711104884e-15 -2.1821481162847e-16 1
  outer loop
    vertex -5.090811729431152 25.09081077575684 81.13512420654297
    vertex -2.641016244888306 17 81.13512420654297
    vertex -4.661731243133545 25.64999961853027 81.13512420654297
  endloop
endfacet
facet normal -2.738698711104884e-15 -2.1821481162847e-16 1
  outer loop
    vertex -4.661731243133545 25.64999961853027 81.13512420654297
    vertex -2.641016244888306 17 81.13512420654297
    vertex -4.392000198364258 26.30118942260742 81.13512420654297
  endloop
endfacet
facet normal -2.738698711104884e-15 -2.1821481162847e-16 1
  outer loop
    vertex -4.392000198364258 26.30118942260742 81.13512420654297
    vertex -2.641016244888306 17 81.13512420654297
    vertex -4.300000190734863 27 81.13512420654297
  endloop
endfacet
facet normal -2.738698711104884e-15 -2.1821481162847e-16 1
  outer loop
    vertex -4.300000190734863 27 81.13512420654297
    vertex -2.641016244888306 17 81.13512420654297
    vertex -2.641016244888306 37 81.13512420654297
  endloop
endfacet
facet normal -2.738698711104884e-15 -2.1821481162847e-16 1
  outer loop
    vertex -12 37 81.13512420654297
    vertex -8.909188270568848 28.90918922424316 81.13512420654297
    vertex -2.641016244888306 37 81.13512420654297
  endloop
endfacet
facet normal -2.738698711104884e-15 -2.1821481162847e-16 1
  outer loop
    vertex -8.909188270568848 28.90918922424316 81.13512420654297
    vertex -12 37 81.13512420654297
    vertex -9.338268280029297 28.35000038146973 81.13512420654297
  endloop
endfacet
facet normal -2.738698711104884e-15 -2.1821481162847e-16 1
  outer loop
    vertex -9.338268280029297 28.35000038146973 81.13512420654297
    vertex -12 37 81.13512420654297
    vertex -9.607999801635742 27.69881057739258 81.13512420654297
  endloop
endfacet
facet normal -2.738698711104884e-15 -2.1821481162847e-16 1
  outer loop
    vertex -9.607999801635742 27.69881057739258 81.13512420654297
    vertex -12 37 81.13512420654297
    vertex -12 17 81.13512420654297
  endloop
endfacet
facet normal -2.738698711104884e-15 -2.1821481162847e-16 1
  outer loop
    vertex -9.607999801635742 27.69881057739258 81.13512420654297
    vertex -12 17 81.13512420654297
    vertex -9.699999809265137 27 81.13512420654297
  endloop
endfacet
facet normal -2.738698711104884e-15 -2.1821481162847e-16 1
  outer loop
    vertex -2.641016244888306 37 81.13512420654297
    vertex -8.909188270568848 28.90918922424316 81.13512420654297
    vertex -8.350000381469727 29.3382682800293 81.13512420654297
  endloop
endfacet
facet normal -2.738698711104884e-15 -2.1821481162847e-16 1
  outer loop
    vertex -2.641016244888306 37 81.13512420654297
    vertex -8.350000381469727 29.3382682800293 81.13512420654297
    vertex -7.698811531066895 29.60799980163574 81.13512420654297
  endloop
endfacet
facet normal -2.738698711104884e-15 -2.1821481162847e-16 1
  outer loop
    vertex -2.641016244888306 37 81.13512420654297
    vertex -7.698811531066895 29.60799980163574 81.13512420654297
    vertex -7 29.70000076293945 81.13512420654297
  endloop
endfacet
facet normal -2.738698711104884e-15 -2.1821481162847e-16 1
  outer loop
    vertex -2.641016244888306 37 81.13512420654297
    vertex -7 29.70000076293945 81.13512420654297
    vertex -6.301188468933105 29.60799980163574 81.13512420654297
  endloop
endfacet
facet normal -2.738698711104884e-15 -2.1821481162847e-16 1
  outer loop
    vertex -2.641016244888306 37 81.13512420654297
    vertex -6.301188468933105 29.60799980163574 81.13512420654297
    vertex -5.650000095367432 29.3382682800293 81.13512420654297
  endloop
endfacet
facet normal -2.738698711104884e-15 -2.1821481162847e-16 1
  outer loop
    vertex -2.641016244888306 37 81.13512420654297
    vertex -5.650000095367432 29.3382682800293 81.13512420654297
    vertex -5.090811729431152 28.90918922424316 81.13512420654297
  endloop
endfacet
facet normal -2.738698711104884e-15 -2.1821481162847e-16 1
  outer loop
    vertex -2.641016244888306 37 81.13512420654297
    vertex -5.090811729431152 28.90918922424316 81.13512420654297
    vertex -4.661731243133545 28.35000038146973 81.13512420654297
  endloop
endfacet
facet normal -2.738698711104884e-15 -2.1821481162847e-16 1
  outer loop
    vertex -2.641016244888306 37 81.13512420654297
    vertex -4.661731243133545 28.35000038146973 81.13512420654297
    vertex -4.392000198364258 27.69881057739258 81.13512420654297
  endloop
endfacet
facet normal -2.738698711104884e-15 -2.1821481162847e-16 1
  outer loop
    vertex -2.641016244888306 37 81.13512420654297
    vertex -4.392000198364258 27.69881057739258 81.13512420654297
    vertex -4.300000190734863 27 81.13512420654297
  endloop
endfacet
facet normal 0 -1 0
  outer loop
    vertex 76 17 81.13512420654297
    vertex 66 17 60.63512420654297
    vertex 76 17 60.63512420654297
  endloop
endfacet
facet normal 0 -1 0
  outer loop
    vertex 66 17 60.63512420654297
    vertex 76 17 81.13512420654297
    vertex 66 17 61.13512420654297
  endloop
endfacet
facet normal 0 -1 0
  outer loop
    vertex 66 17 61.13512420654297
    vertex 76 17 81.13512420654297
    vertex 65.70912170410156 17 65.57301330566406
  endloop
endfacet
facet normal 0 -1 0
  outer loop
    vertex 65.70912170410156 17 65.57301330566406
    vertex 76 17 81.13512420654297
    vertex 64.84147644042969 17 69.93496704101563
  endloop
endfacet
facet normal 0 -1 0
  outer loop
    vertex 64.84147644042969 17 69.93496704101563
    vertex 76 17 81.13512420654297
    vertex 63.41190338134766 17 74.1463623046875
  endloop
endfacet
facet normal 0 -1 0
  outer loop
    vertex 63.41190338134766 17 74.1463623046875
    vertex 76 17 81.13512420654297
    vertex 61.44486236572266 17 78.13512420654297
  endloop
endfacet
facet normal 0 -1 0
  outer loop
    vertex 61.44486236572266 17 78.13512420654297
    vertex 76 17 81.13512420654297
    vertex 66.64101409912109 17 81.13512420654297
  endloop
endfacet
facet normal 0 -1 0
  outer loop
    vertex 66.64101409912109 17 81.13512420654297
    vertex 58.97401428222656 17 81.8330078125
    vertex 61.44486236572266 17 78.13512420654297
  endloop
endfacet
facet normal 0 -1 0
  outer loop
    vertex 58.97401428222656 17 81.8330078125
    vertex 66.64101409912109 17 81.13512420654297
    vertex 60.28427124023438 17 89.41939544677734
  endloop
endfacet
facet normal 0 -1 0
  outer loop
    vertex 58.97401428222656 17 81.8330078125
    vertex 60.28427124023438 17 89.41939544677734
    vertex 56.04162979125977 17 85.17675018310547
  endloop
endfacet
facet normal 0 -1 0
  outer loop
    vertex 56.04162979125977 17 85.17675018310547
    vertex 60.28427124023438 17 89.41939544677734
    vertex 52.6978874206543 17 88.10913848876953
  endloop
endfacet
facet normal 0 -1 0
  outer loop
    vertex 52.6978874206543 17 88.10913848876953
    vertex 60.28427124023438 17 89.41939544677734
    vertex 49 17 90.57998657226563
  endloop
endfacet
facet normal 0 -1 0
  outer loop
    vertex 49 17 90.57998657226563
    vertex 60.28427124023438 17 89.41939544677734
    vertex 52 17 95.77613830566406
  endloop
endfacet
facet normal 0 -1 0
  outer loop
    vertex 49 17 90.57998657226563
    vertex 52 17 95.77613830566406
    vertex 45.01123809814453 17 92.54702758789063
  endloop
endfacet
facet normal 0 -1 0
  outer loop
    vertex 45.01123809814453 17 92.54702758789063
    vertex 52 17 95.77613830566406
    vertex 40.79984664916992 17 93.97660064697266
  endloop
endfacet
facet normal 0 -1 0
  outer loop
    vertex 40.79984664916992 17 93.97660064697266
    vertex 52 17 95.77613830566406
    vertex 36.43788909912109 17 94.84424591064453
  endloop
endfacet
facet normal 0 -1 0
  outer loop
    vertex 36.43788909912109 17 94.84424591064453
    vertex 52 17 95.77613830566406
    vertex 32 17 95.13512420654297
  endloop
endfacet
facet normal 0 -1 0
  outer loop
    vertex 5.025986194610596 17 81.8330078125
    vertex -2.641016244888306 17 81.13512420654297
    vertex 2.555136203765869 17 78.13512420654297
  endloop
endfacet
facet normal 0 -1 0
  outer loop
    vertex -2.641016244888306 17 81.13512420654297
    vertex 5.025986194610596 17 81.8330078125
    vertex 3.715728759765625 17 89.41939544677734
  endloop
endfacet
facet normal 0 -1 0
  outer loop
    vertex 3.715728759765625 17 89.41939544677734
    vertex 5.025986194610596 17 81.8330078125
    vertex 7.958369255065918 17 85.17675018310547
  endloop
endfacet
facet normal 0 -1 0
  outer loop
    vertex 3.715728759765625 17 89.41939544677734
    vertex 7.958369255065918 17 85.17675018310547
    vertex 11.30211162567139 17 88.10913848876953
  endloop
endfacet
facet normal 0 -1 0
  outer loop
    vertex 3.715728759765625 17 89.41939544677734
    vertex 11.30211162567139 17 88.10913848876953
    vertex 15 17 90.57998657226563
  endloop
endfacet
facet normal 0 -1 0
  outer loop
    vertex 3.715728759765625 17 89.41939544677734
    vertex 15 17 90.57998657226563
    vertex 12 17 95.77613830566406
  endloop
endfacet
facet normal 0 -1 0
  outer loop
    vertex 12 17 95.77613830566406
    vertex 15 17 90.57998657226563
    vertex 18.9887638092041 17 92.54702758789063
  endloop
endfacet
facet normal 0 -1 0
  outer loop
    vertex 12 17 95.77613830566406
    vertex 18.9887638092041 17 92.54702758789063
    vertex 23.20015335083008 17 93.97660064697266
  endloop
endfacet
facet normal 0 -1 0
  outer loop
    vertex 12 17 95.77613830566406
    vertex 23.20015335083008 17 93.97660064697266
    vertex 27.56210899353027 17 94.84424591064453
  endloop
endfacet
facet normal 0 -1 0
  outer loop
    vertex 12 17 95.77613830566406
    vertex 27.56210899353027 17 94.84424591064453
    vertex 32 17 95.13512420654297
  endloop
endfacet
facet normal 0 -1 0
  outer loop
    vertex 12 17 95.77613830566406
    vertex 32 17 95.13512420654297
    vertex 52 17 95.77613830566406
  endloop
endfacet
facet normal 0 -1 0
  outer loop
    vertex 12 17 95.77613830566406
    vertex 52 17 95.77613830566406
    vertex 42.35276031494141 17 99.77215576171875
  endloop
endfacet
facet normal 0 -1 0
  outer loop
    vertex 12 17 95.77613830566406
    vertex 42.35276031494141 17 99.77215576171875
    vertex 21.64723777770996 17 99.77215576171875
  endloop
endfacet
facet normal 0 -1 0
  outer loop
    vertex 21.64723777770996 17 99.77215576171875
    vertex 42.35276031494141 17 99.77215576171875
    vertex 32 17 101.135124206543
  endloop
endfacet
facet normal 0 -1 0
  outer loop
    vertex -2 17 61.13512420654297
    vertex -12 17 60.63512420654297
    vertex -2 17 60.63512420654297
  endloop
endfacet
facet normal 0 -1 0
  outer loop
    vertex -12 17 60.63512420654297
    vertex -2 17 61.13512420654297
    vertex -12 17 81.13512420654297
  endloop
endfacet
facet normal 0 -1 0
  outer loop
    vertex -12 17 81.13512420654297
    vertex -2 17 61.13512420654297
    vertex -1.709125280380249 17 65.57301330566406
  endloop
endfacet
facet normal 0 -1 0
  outer loop
    vertex -12 17 81.13512420654297
    vertex -1.709125280380249 17 65.57301330566406
    vertex -0.8414781093597412 17 69.93496704101563
  endloop
endfacet
facet normal 0 -1 0
  outer loop
    vertex -12 17 81.13512420654297
    vertex -0.8414781093597412 17 69.93496704101563
    vertex 0.5880959033966064 17 74.1463623046875
  endloop
endfacet
facet normal 0 -1 0
  outer loop
    vertex -12 17 81.13512420654297
    vertex 0.5880959033966064 17 74.1463623046875
    vertex 2.555136203765869 17 78.13512420654297
  endloop
endfacet
facet normal 0 -1 0
  outer loop
    vertex -12 17 81.13512420654297
    vertex 2.555136203765869 17 78.13512420654297
    vertex -2.641016244888306 17 81.13512420654297
  endloop
endfacet
facet normal 1 0 0
  outer loop
    vertex 76 37 60.63512420654297
    vertex 76 17 81.13512420654297
    vertex 76 17 60.63512420654297
  endloop
endfacet
facet normal 1 0 0
  outer loop
    vertex 76 17 81.13512420654297
    vertex 76 37 60.63512420654297
    vertex 76 37 81.13512420654297
  endloop
endfacet
facet normal -1 -1.057487415073594e-16 1.057487415073594e-16
  outer loop
    vertex -12 37 81.13512420654297
    vertex -12 17 60.63512420654297
    vertex -12 17 81.13512420654297
  endloop
endfacet
facet normal -1 -1.057487415073594e-16 1.057487415073594e-16
  outer loop
    vertex -12 17 60.63512420654297
    vertex -12 37 81.13512420654297
    vertex -12 37 60.63512420654297
  endloop
endfacet
facet normal -4.82097907533968e-15 0 1
  outer loop
    vertex 66.64101409912109 17 81.13512420654297
    vertex 68.39199829101563 26.30118942260742 81.13512420654297
    vertex 66.64101409912109 37 81.13512420654297
  endloop
endfacet
facet normal -4.82097907533968e-15 0 1
  outer loop
    vertex 68.39199829101563 26.30118942260742 81.13512420654297
    vertex 66.64101409912109 17 81.13512420654297
    vertex 68.66172790527344 25.64999961853027 81.13512420654297
  endloop
endfacet
facet normal -4.82097907533968e-15 0 1
  outer loop
    vertex 68.66172790527344 25.64999961853027 81.13512420654297
    vertex 66.64101409912109 17 81.13512420654297
    vertex 69.09081268310547 25.09081077575684 81.13512420654297
  endloop
endfacet
facet normal -4.82097907533968e-15 0 1
  outer loop
    vertex 69.09081268310547 25.09081077575684 81.13512420654297
    vertex 66.64101409912109 17 81.13512420654297
    vertex 76 17 81.13512420654297
  endloop
endfacet
facet normal -4.82097907533968e-15 0 1
  outer loop
    vertex 66.64101409912109 37 81.13512420654297
    vertex 68.39199829101563 26.30118942260742 81.13512420654297
    vertex 68.30000305175781 27 81.13512420654297
  endloop
endfacet
facet normal -4.82097907533968e-15 0 1
  outer loop
    vertex 69.09081268310547 25.09081077575684 81.13512420654297
    vertex 76 17 81.13512420654297
    vertex 69.65000152587891 24.6617317199707 81.13512420654297
  endloop
endfacet
facet normal -4.82097907533968e-15 0 1
  outer loop
    vertex 69.65000152587891 24.6617317199707 81.13512420654297
    vertex 76 17 81.13512420654297
    vertex 70.30118560791016 24.39200019836426 81.13512420654297
  endloop
endfacet
facet normal -4.82097907533968e-15 0 1
  outer loop
    vertex 70.30118560791016 24.39200019836426 81.13512420654297
    vertex 76 17 81.13512420654297
    vertex 71 24.29999923706055 81.13512420654297
  endloop
endfacet
facet normal -4.82097907533968e-15 0 1
  outer loop
    vertex 71 24.29999923706055 81.13512420654297
    vertex 76 17 81.13512420654297
    vertex 71.69881439208984 24.39200019836426 81.13512420654297
  endloop
endfacet
facet normal -4.82097907533968e-15 0 1
  outer loop
    vertex 71.69881439208984 24.39200019836426 81.13512420654297
    vertex 76 17 81.13512420654297
    vertex 72.34999847412109 24.6617317199707 81.13512420654297
  endloop
endfacet
facet normal -4.82097907533968e-15 0 1
  outer loop
    vertex 72.34999847412109 24.6617317199707 81.13512420654297
    vertex 76 17 81.13512420654297
    vertex 72.90918731689453 25.09081077575684 81.13512420654297
  endloop
endfacet
facet normal -4.82097907533968e-15 0 1
  outer loop
    vertex 72.90918731689453 25.09081077575684 81.13512420654297
    vertex 76 17 81.13512420654297
    vertex 73.33827209472656 25.64999961853027 81.13512420654297
  endloop
endfacet
facet normal -4.82097907533968e-15 0 1
  outer loop
    vertex 73.33827209472656 25.64999961853027 81.13512420654297
    vertex 76 17 81.13512420654297
    vertex 73.60800170898438 26.30118942260742 81.13512420654297
  endloop
endfacet
facet normal -4.82097907533968e-15 0 1
  outer loop
    vertex 73.60800170898438 26.30118942260742 81.13512420654297
    vertex 76 17 81.13512420654297
    vertex 73.69999694824219 27 81.13512420654297
  endloop
endfacet
facet normal -4.82097907533968e-15 0 1
  outer loop
    vertex 66.64101409912109 37 81.13512420654297
    vertex 69.09081268310547 28.90918922424316 81.13512420654297
    vertex 76 37 81.13512420654297
  endloop
endfacet
facet normal -4.82097907533968e-15 0 1
  outer loop
    vertex 69.09081268310547 28.90918922424316 81.13512420654297
    vertex 66.64101409912109 37 81.13512420654297
    vertex 68.66172790527344 28.35000038146973 81.13512420654297
  endloop
endfacet
facet normal -4.82097907533968e-15 0 1
  outer loop
    vertex 68.66172790527344 28.35000038146973 81.13512420654297
    vertex 66.64101409912109 37 81.13512420654297
    vertex 68.39199829101563 27.69881057739258 81.13512420654297
  endloop
endfacet
facet normal -4.82097907533968e-15 0 1
  outer loop
    vertex 68.39199829101563 27.69881057739258 81.13512420654297
    vertex 66.64101409912109 37 81.13512420654297
    vertex 68.30000305175781 27 81.13512420654297
  endloop
endfacet
facet normal -4.82097907533968e-15 0 1
  outer loop
    vertex 76 37 81.13512420654297
    vertex 69.09081268310547 28.90918922424316 81.13512420654297
    vertex 69.65000152587891 29.3382682800293 81.13512420654297
  endloop
endfacet
facet normal -4.82097907533968e-15 0 1
  outer loop
    vertex 76 37 81.13512420654297
    vertex 69.65000152587891 29.3382682800293 81.13512420654297
    vertex 70.30118560791016 29.60799980163574 81.13512420654297
  endloop
endfacet
facet normal -4.82097907533968e-15 0 1
  outer loop
    vertex 76 37 81.13512420654297
    vertex 70.30118560791016 29.60799980163574 81.13512420654297
    vertex 71 29.70000076293945 81.13512420654297
  endloop
endfacet
facet normal -4.82097907533968e-15 0 1
  outer loop
    vertex 76 37 81.13512420654297
    vertex 71 29.70000076293945 81.13512420654297
    vertex 71.69881439208984 29.60799980163574 81.13512420654297
  endloop
endfacet
facet normal -4.82097907533968e-15 0 1
  outer loop
    vertex 76 37 81.13512420654297
    vertex 71.69881439208984 29.60799980163574 81.13512420654297
    vertex 72.34999847412109 29.3382682800293 81.13512420654297
  endloop
endfacet
facet normal -4.82097907533968e-15 0 1
  outer loop
    vertex 76 37 81.13512420654297
    vertex 72.34999847412109 29.3382682800293 81.13512420654297
    vertex 72.90918731689453 28.90918922424316 81.13512420654297
  endloop
endfacet
facet normal -4.82097907533968e-15 0 1
  outer loop
    vertex 76 37 81.13512420654297
    vertex 72.90918731689453 28.90918922424316 81.13512420654297
    vertex 73.33827209472656 28.35000038146973 81.13512420654297
  endloop
endfacet
facet normal -4.82097907533968e-15 0 1
  outer loop
    vertex 76 37 81.13512420654297
    vertex 73.33827209472656 28.35000038146973 81.13512420654297
    vertex 73.60800170898438 27.69881057739258 81.13512420654297
  endloop
endfacet
facet normal -4.82097907533968e-15 0 1
  outer loop
    vertex 76 37 81.13512420654297
    vertex 73.60800170898438 27.69881057739258 81.13512420654297
    vertex 73.69999694824219 27 81.13512420654297
  endloop
endfacet
facet normal -4.82097907533968e-15 0 1
  outer loop
    vertex 76 37 81.13512420654297
    vertex 73.69999694824219 27 81.13512420654297
    vertex 76 17 81.13512420654297
  endloop
endfacet
facet normal -0.7933533191680908 -2.308541446231701e-16 0.6087614297866821
  outer loop
    vertex 3.715728759765625 37 89.41939544677734
    vertex -2.641016244888306 17 81.13512420654297
    vertex 3.715728759765625 17 89.41939544677734
  endloop
endfacet
facet normal -0.7933533191680908 -2.308541446231701e-16 0.6087614297866821
  outer loop
    vertex -2.641016244888306 17 81.13512420654297
    vertex 3.715728759765625 37 89.41939544677734
    vertex -2.641016244888306 37 81.13512420654297
  endloop
endfacet
facet normal -0.1305261850357056 2.921630874858733e-18 0.9914448857307434
  outer loop
    vertex 32 17 101.135124206543
    vertex 21.64723777770996 37 99.77215576171875
    vertex 21.64723777770996 17 99.77215576171875
  endloop
endfacet
facet normal -0.1305261850357056 2.921630874858733e-18 0.9914448857307434
  outer loop
    vertex 21.64723777770996 37 99.77215576171875
    vertex 32 17 101.135124206543
    vertex 32 37 101.135124206543
  endloop
endfacet
facet normal 0.6087614297866821 -5.451822744675081e-16 0.7933533191680908
  outer loop
    vertex 60.28427124023438 17 89.41939544677734
    vertex 52 37 95.77613830566406
    vertex 52 17 95.77613830566406
  endloop
endfacet
facet normal 0.6087614297866821 -5.451822744675081e-16 0.7933533191680908
  outer loop
    vertex 52 37 95.77613830566406
    vertex 60.28427124023438 17 89.41939544677734
    vertex 60.28427124023438 37 89.41939544677734
  endloop
endfacet
facet normal -0.6087614297866821 -5.451822744675081e-16 0.7933533191680908
  outer loop
    vertex 3.715728759765625 17 89.41939544677734
    vertex 12 37 95.77613830566406
    vertex 3.715728759765625 37 89.41939544677734
  endloop
endfacet
facet normal -0.6087614297866821 -5.451822744675081e-16 0.7933533191680908
  outer loop
    vertex 12 37 95.77613830566406
    vertex 3.715728759765625 17 89.41939544677734
    vertex 12 17 95.77613830566406
  endloop
endfacet
facet normal -0.3826834261417389 -5.475529608681953e-16 0.9238795042037964
  outer loop
    vertex 12 17 95.77613830566406
    vertex 21.64723777770996 37 99.77215576171875
    vertex 12 37 95.77613830566406
  endloop
endfacet
facet normal -0.3826834261417389 -5.475529608681953e-16 0.9238795042037964
  outer loop
    vertex 21.64723777770996 37 99.77215576171875
    vertex 12 17 95.77613830566406
    vertex 21.64723777770996 17 99.77215576171875
  endloop
endfacet
facet normal 0.1305261850357056 2.773998781057566e-18 0.9914448857307434
  outer loop
    vertex 42.35276031494141 17 99.77215576171875
    vertex 32 37 101.135124206543
    vertex 32 17 101.135124206543
  endloop
endfacet
facet normal 0.1305261850357056 2.773998781057566e-18 0.9914448857307434
  outer loop
    vertex 32 37 101.135124206543
    vertex 42.35276031494141 17 99.77215576171875
    vertex 42.35276031494141 37 99.77215576171875
  endloop
endfacet
facet normal 0.3826834261417389 -5.475529608681953e-16 0.9238795042037964
  outer loop
    vertex 52 17 95.77613830566406
    vertex 42.35276031494141 37 99.77215576171875
    vertex 42.35276031494141 17 99.77215576171875
  endloop
endfacet
facet normal 0.3826834261417389 -5.475529608681953e-16 0.9238795042037964
  outer loop
    vertex 42.35276031494141 37 99.77215576171875
    vertex 52 17 95.77613830566406
    vertex 52 37 95.77613830566406
  endloop
endfacet
facet normal 0.7933533191680908 -5.056583407200832e-16 0.6087614297866821
  outer loop
    vertex 66.64101409912109 37 81.13512420654297
    vertex 60.28427124023438 17 89.41939544677734
    vertex 66.64101409912109 17 81.13512420654297
  endloop
endfacet
facet normal 0.7933533191680908 -5.056583407200832e-16 0.6087614297866821
  outer loop
    vertex 60.28427124023438 17 89.41939544677734
    vertex 66.64101409912109 37 81.13512420654297
    vertex 60.28427124023438 37 89.41939544677734
  endloop
endfacet
facet normal -2.81996644019625e-16 1.409983220098125e-16 -1
  outer loop
    vertex -12 37 60.63512420654297
    vertex -9.607999801635742 27.69881057739258 60.63512420654297
    vertex -12 17 60.63512420654297
  endloop
endfacet
facet normal -2.81996644019625e-16 1.409983220098125e-16 -1
  outer loop
    vertex -9.607999801635742 27.69881057739258 60.63512420654297
    vertex -12 37 60.63512420654297
    vertex -9.338268280029297 28.35000038146973 60.63512420654297
  endloop
endfacet
facet normal -2.81996644019625e-16 1.409983220098125e-16 -1
  outer loop
    vertex -9.338268280029297 28.35000038146973 60.63512420654297
    vertex -12 37 60.63512420654297
    vertex -8.909188270568848 28.90918922424316 60.63512420654297
  endloop
endfacet
facet normal -2.81996644019625e-16 1.409983220098125e-16 -1
  outer loop
    vertex -8.909188270568848 28.90918922424316 60.63512420654297
    vertex -12 37 60.63512420654297
    vertex -2 37 60.63512420654297
  endloop
endfacet
facet normal -2.81996644019625e-16 1.409983220098125e-16 -1
  outer loop
    vertex -12 17 60.63512420654297
    vertex -9.607999801635742 27.69881057739258 60.63512420654297
    vertex -9.699999809265137 27 60.63512420654297
  endloop
endfacet
facet normal -2.81996644019625e-16 1.409983220098125e-16 -1
  outer loop
    vertex -8.909188270568848 28.90918922424316 60.63512420654297
    vertex -2 37 60.63512420654297
    vertex -8.350000381469727 29.3382682800293 60.63512420654297
  endloop
endfacet
facet normal -2.81996644019625e-16 1.409983220098125e-16 -1
  outer loop
    vertex -8.350000381469727 29.3382682800293 60.63512420654297
    vertex -2 37 60.63512420654297
    vertex -7.698811531066895 29.60799980163574 60.63512420654297
  endloop
endfacet
facet normal -2.81996644019625e-16 1.409983220098125e-16 -1
  outer loop
    vertex -7.698811531066895 29.60799980163574 60.63512420654297
    vertex -2 37 60.63512420654297
    vertex -7 29.70000076293945 60.63512420654297
  endloop
endfacet
facet normal -2.81996644019625e-16 1.409983220098125e-16 -1
  outer loop
    vertex -7 29.70000076293945 60.63512420654297
    vertex -2 37 60.63512420654297
    vertex -6.301188468933105 29.60799980163574 60.63512420654297
  endloop
endfacet
facet normal -2.81996644019625e-16 1.409983220098125e-16 -1
  outer loop
    vertex -6.301188468933105 29.60799980163574 60.63512420654297
    vertex -2 37 60.63512420654297
    vertex -5.650000095367432 29.3382682800293 60.63512420654297
  endloop
endfacet
facet normal -2.81996644019625e-16 1.409983220098125e-16 -1
  outer loop
    vertex -5.650000095367432 29.3382682800293 60.63512420654297
    vertex -2 37 60.63512420654297
    vertex -5.090811729431152 28.90918922424316 60.63512420654297
  endloop
endfacet
facet normal -2.81996644019625e-16 1.409983220098125e-16 -1
  outer loop
    vertex -5.090811729431152 28.90918922424316 60.63512420654297
    vertex -2 37 60.63512420654297
    vertex -4.661731243133545 28.35000038146973 60.63512420654297
  endloop
endfacet
facet normal -2.81996644019625e-16 1.409983220098125e-16 -1
  outer loop
    vertex -4.661731243133545 28.35000038146973 60.63512420654297
    vertex -2 37 60.63512420654297
    vertex -4.392000198364258 27.69881057739258 60.63512420654297
  endloop
endfacet
facet normal -2.81996644019625e-16 1.409983220098125e-16 -1
  outer loop
    vertex -4.392000198364258 27.69881057739258 60.63512420654297
    vertex -2 37 60.63512420654297
    vertex -4.300000190734863 27 60.63512420654297
  endloop
endfacet
facet normal -2.81996644019625e-16 1.409983220098125e-16 -1
  outer loop
    vertex -12 17 60.63512420654297
    vertex -8.909188270568848 25.09081077575684 60.63512420654297
    vertex -2 17 60.63512420654297
  endloop
endfacet
facet normal -2.81996644019625e-16 1.409983220098125e-16 -1
  outer loop
    vertex -8.909188270568848 25.09081077575684 60.63512420654297
    vertex -12 17 60.63512420654297
    vertex -9.338268280029297 25.64999961853027 60.63512420654297
  endloop
endfacet
facet normal -2.81996644019625e-16 1.409983220098125e-16 -1
  outer loop
    vertex -9.338268280029297 25.64999961853027 60.63512420654297
    vertex -12 17 60.63512420654297
    vertex -9.607999801635742 26.30118942260742 60.63512420654297
  endloop
endfacet
facet normal -2.81996644019625e-16 1.409983220098125e-16 -1
  outer loop
    vertex -9.607999801635742 26.30118942260742 60.63512420654297
    vertex -12 17 60.63512420654297
    vertex -9.699999809265137 27 60.63512420654297
  endloop
endfacet
facet normal -2.81996644019625e-16 1.409983220098125e-16 -1
  outer loop
    vertex -2 17 60.63512420654297
    vertex -8.909188270568848 25.09081077575684 60.63512420654297
    vertex -8.350000381469727 24.6617317199707 60.63512420654297
  endloop
endfacet
facet normal -2.81996644019625e-16 1.409983220098125e-16 -1
  outer loop
    vertex -2 17 60.63512420654297
    vertex -8.350000381469727 24.6617317199707 60.63512420654297
    vertex -7.698811531066895 24.39200019836426 60.63512420654297
  endloop
endfacet
facet normal -2.81996644019625e-16 1.409983220098125e-16 -1
  outer loop
    vertex -2 17 60.63512420654297
    vertex -7.698811531066895 24.39200019836426 60.63512420654297
    vertex -7 24.29999923706055 60.63512420654297
  endloop
endfacet
facet normal -2.81996644019625e-16 1.409983220098125e-16 -1
  outer loop
    vertex -2 17 60.63512420654297
    vertex -7 24.29999923706055 60.63512420654297
    vertex -6.301188468933105 24.39200019836426 60.63512420654297
  endloop
endfacet
facet normal -2.81996644019625e-16 1.409983220098125e-16 -1
  outer loop
    vertex -2 17 60.63512420654297
    vertex -6.301188468933105 24.39200019836426 60.63512420654297
    vertex -5.650000095367432 24.6617317199707 60.63512420654297
  endloop
endfacet
facet normal -2.81996644019625e-16 1.409983220098125e-16 -1
  outer loop
    vertex -2 17 60.63512420654297
    vertex -5.650000095367432 24.6617317199707 60.63512420654297
    vertex -5.090811729431152 25.09081077575684 60.63512420654297
  endloop
endfacet
facet normal -2.81996644019625e-16 1.409983220098125e-16 -1
  outer loop
    vertex -2 17 60.63512420654297
    vertex -5.090811729431152 25.09081077575684 60.63512420654297
    vertex -4.661731243133545 25.64999961853027 60.63512420654297
  endloop
endfacet
facet normal -2.81996644019625e-16 1.409983220098125e-16 -1
  outer loop
    vertex -2 17 60.63512420654297
    vertex -4.661731243133545 25.64999961853027 60.63512420654297
    vertex -4.392000198364258 26.30118942260742 60.63512420654297
  endloop
endfacet
facet normal -2.81996644019625e-16 1.409983220098125e-16 -1
  outer loop
    vertex -2 17 60.63512420654297
    vertex -4.392000198364258 26.30118942260742 60.63512420654297
    vertex -4.300000190734863 27 60.63512420654297
  endloop
endfacet
facet normal -2.81996644019625e-16 1.409983220098125e-16 -1
  outer loop
    vertex -2 17 60.63512420654297
    vertex -4.300000190734863 27 60.63512420654297
    vertex -2 37 60.63512420654297
  endloop
endfacet
facet normal 0.9978589415550232 0 -0.06540312618017197
  outer loop
    vertex -2 37 61.13512420654297
    vertex -1.709125280380249 17 65.57301330566406
    vertex -2 17 61.13512420654297
  endloop
endfacet
facet normal 0.9978589415550232 0 -0.06540312618017197
  outer loop
    vertex -1.709125280380249 17 65.57301330566406
    vertex -2 37 61.13512420654297
    vertex -1.709125280380249 37 65.57301330566406
  endloop
endfacet
facet normal 1 0 -2.81996644019625e-16
  outer loop
    vertex -2 37 60.63512420654297
    vertex -2 17 61.13512420654297
    vertex -2 17 60.63512420654297
  endloop
endfacet
facet normal 1 0 -2.81996644019625e-16
  outer loop
    vertex -2 17 61.13512420654297
    vertex -2 37 60.63512420654297
    vertex -2 37 61.13512420654297
  endloop
endfacet
facet normal -2.81996644019625e-16 1.409983220098125e-16 -1
  outer loop
    vertex 66 37 60.63512420654297
    vertex 68.39199829101563 27.69881057739258 60.63512420654297
    vertex 66 17 60.63512420654297
  endloop
endfacet
facet normal -2.81996644019625e-16 1.409983220098125e-16 -1
  outer loop
    vertex 68.39199829101563 27.69881057739258 60.63512420654297
    vertex 66 37 60.63512420654297
    vertex 68.66172790527344 28.35000038146973 60.63512420654297
  endloop
endfacet
facet normal -2.81996644019625e-16 1.409983220098125e-16 -1
  outer loop
    vertex 68.66172790527344 28.35000038146973 60.63512420654297
    vertex 66 37 60.63512420654297
    vertex 69.09081268310547 28.90918922424316 60.63512420654297
  endloop
endfacet
facet normal -2.81996644019625e-16 1.409983220098125e-16 -1
  outer loop
    vertex 69.09081268310547 28.90918922424316 60.63512420654297
    vertex 66 37 60.63512420654297
    vertex 76 37 60.63512420654297
  endloop
endfacet
facet normal -2.81996644019625e-16 1.409983220098125e-16 -1
  outer loop
    vertex 66 17 60.63512420654297
    vertex 68.39199829101563 27.69881057739258 60.63512420654297
    vertex 68.30000305175781 27 60.63512420654297
  endloop
endfacet
facet normal -2.81996644019625e-16 1.409983220098125e-16 -1
  outer loop
    vertex 69.09081268310547 28.90918922424316 60.63512420654297
    vertex 76 37 60.63512420654297
    vertex 69.65000152587891 29.3382682800293 60.63512420654297
  endloop
endfacet
facet normal -2.81996644019625e-16 1.409983220098125e-16 -1
  outer loop
    vertex 69.65000152587891 29.3382682800293 60.63512420654297
    vertex 76 37 60.63512420654297
    vertex 70.30118560791016 29.60799980163574 60.63512420654297
  endloop
endfacet
facet normal -2.81996644019625e-16 1.409983220098125e-16 -1
  outer loop
    vertex 70.30118560791016 29.60799980163574 60.63512420654297
    vertex 76 37 60.63512420654297
    vertex 71 29.70000076293945 60.63512420654297
  endloop
endfacet
facet normal -2.81996644019625e-16 1.409983220098125e-16 -1
  outer loop
    vertex 71 29.70000076293945 60.63512420654297
    vertex 76 37 60.63512420654297
    vertex 71.69881439208984 29.60799980163574 60.63512420654297
  endloop
endfacet
facet normal -2.81996644019625e-16 1.409983220098125e-16 -1
  outer loop
    vertex 71.69881439208984 29.60799980163574 60.63512420654297
    vertex 76 37 60.63512420654297
    vertex 72.34999847412109 29.3382682800293 60.63512420654297
  endloop
endfacet
facet normal -2.81996644019625e-16 1.409983220098125e-16 -1
  outer loop
    vertex 72.34999847412109 29.3382682800293 60.63512420654297
    vertex 76 37 60.63512420654297
    vertex 72.90918731689453 28.90918922424316 60.63512420654297
  endloop
endfacet
facet normal -2.81996644019625e-16 1.409983220098125e-16 -1
  outer loop
    vertex 72.90918731689453 28.90918922424316 60.63512420654297
    vertex 76 37 60.63512420654297
    vertex 73.33827209472656 28.35000038146973 60.63512420654297
  endloop
endfacet
facet normal -2.81996644019625e-16 1.409983220098125e-16 -1
  outer loop
    vertex 73.33827209472656 28.35000038146973 60.63512420654297
    vertex 76 37 60.63512420654297
    vertex 73.60800170898438 27.69881057739258 60.63512420654297
  endloop
endfacet
facet normal -2.81996644019625e-16 1.409983220098125e-16 -1
  outer loop
    vertex 73.60800170898438 27.69881057739258 60.63512420654297
    vertex 76 37 60.63512420654297
    vertex 73.69999694824219 27 60.63512420654297
  endloop
endfacet
facet normal -2.81996644019625e-16 1.409983220098125e-16 -1
  outer loop
    vertex 66 17 60.63512420654297
    vertex 69.09081268310547 25.09081077575684 60.63512420654297
    vertex 76 17 60.63512420654297
  endloop
endfacet
facet normal -2.81996644019625e-16 1.409983220098125e-16 -1
  outer loop
    vertex 69.09081268310547 25.09081077575684 60.63512420654297
    vertex 66 17 60.63512420654297
    vertex 68.66172790527344 25.64999961853027 60.63512420654297
  endloop
endfacet
facet normal -2.81996644019625e-16 1.409983220098125e-16 -1
  outer loop
    vertex 68.66172790527344 25.64999961853027 60.63512420654297
    vertex 66 17 60.63512420654297
    vertex 68.39199829101563 26.30118942260742 60.63512420654297
  endloop
endfacet
facet normal -2.81996644019625e-16 1.409983220098125e-16 -1
  outer loop
    vertex 68.39199829101563 26.30118942260742 60.63512420654297
    vertex 66 17 60.63512420654297
    vertex 68.30000305175781 27 60.63512420654297
  endloop
endfacet
facet normal -2.81996644019625e-16 1.409983220098125e-16 -1
  outer loop
    vertex 76 17 60.63512420654297
    vertex 69.09081268310547 25.09081077575684 60.63512420654297
    vertex 69.65000152587891 24.6617317199707 60.63512420654297
  endloop
endfacet
facet normal -2.81996644019625e-16 1.409983220098125e-16 -1
  outer loop
    vertex 76 17 60.63512420654297
    vertex 69.65000152587891 24.6617317199707 60.63512420654297
    vertex 70.30118560791016 24.39200019836426 60.63512420654297
  endloop
endfacet
facet normal -2.81996644019625e-16 1.409983220098125e-16 -1
  outer loop
    vertex 76 17 60.63512420654297
    vertex 70.30118560791016 24.39200019836426 60.63512420654297
    vertex 71 24.29999923706055 60.63512420654297
  endloop
endfacet
facet normal -2.81996644019625e-16 1.409983220098125e-16 -1
  outer loop
    vertex 76 17 60.63512420654297
    vertex 71 24.29999923706055 60.63512420654297
    vertex 71.69881439208984 24.39200019836426 60.63512420654297
  endloop
endfacet
facet normal -2.81996644019625e-16 1.409983220098125e-16 -1
  outer loop
    vertex 76 17 60.63512420654297
    vertex 71.69881439208984 24.39200019836426 60.63512420654297
    vertex 72.34999847412109 24.6617317199707 60.63512420654297
  endloop
endfacet
facet normal -2.81996644019625e-16 1.409983220098125e-16 -1
  outer loop
    vertex 76 17 60.63512420654297
    vertex 72.34999847412109 24.6617317199707 60.63512420654297
    vertex 72.90918731689453 25.09081077575684 60.63512420654297
  endloop
endfacet
facet normal -2.81996644019625e-16 1.409983220098125e-16 -1
  outer loop
    vertex 76 17 60.63512420654297
    vertex 72.90918731689453 25.09081077575684 60.63512420654297
    vertex 73.33827209472656 25.64999961853027 60.63512420654297
  endloop
endfacet
facet normal -2.81996644019625e-16 1.409983220098125e-16 -1
  outer loop
    vertex 76 17 60.63512420654297
    vertex 73.33827209472656 25.64999961853027 60.63512420654297
    vertex 73.60800170898438 26.30118942260742 60.63512420654297
  endloop
endfacet
facet normal -2.81996644019625e-16 1.409983220098125e-16 -1
  outer loop
    vertex 76 17 60.63512420654297
    vertex 73.60800170898438 26.30118942260742 60.63512420654297
    vertex 73.69999694824219 27 60.63512420654297
  endloop
endfacet
facet normal -2.81996644019625e-16 1.409983220098125e-16 -1
  outer loop
    vertex 76 17 60.63512420654297
    vertex 73.69999694824219 27 60.63512420654297
    vertex 76 37 60.63512420654297
  endloop
endfacet
facet normal -1 0 2.81996644019625e-16
  outer loop
    vertex 66 37 61.13512420654297
    vertex 66 17 60.63512420654297
    vertex 66 17 61.13512420654297
  endloop
endfacet
facet normal -1 0 2.81996644019625e-16
  outer loop
    vertex 66 17 60.63512420654297
    vertex 66 37 61.13512420654297
    vertex 66 37 60.63512420654297
  endloop
endfacet
endsolid 136A
