solid 6DD5
facet normal -0.9914448857307434 -0.1305261850357056 -6.101676480324829e-16
  outer loop
    vertex 774.106201171875 192.3602142333984 38.73137283325195
    vertex 774.2254638671875 191.454345703125 6.767919287064411e-14
    vertex 774.2254638671875 191.454345703125 38.73137283325195
  endloop
endfacet
facet normal -0.9914448857307434 -0.1305261850357056 -6.101676480324829e-16
  outer loop
    vertex 774.2254638671875 191.454345703125 6.767919287064411e-14
    vertex 774.106201171875 192.3602142333984 38.73137283325195
    vertex 774.106201171875 192.3602142333984 6.767919287064411e-14
  endloop
endfacet
facet normal -0.3826834261417389 -0.9238795042037964 -2.355159227972821e-16
  outer loop
    vertex 772.4754638671875 194.4854431152344 38.73137283325195
    vertex 771.63134765625 194.8350982666016 6.767919287064411e-14
    vertex 772.4754638671875 194.4854431152344 6.767919287064411e-14
  endloop
endfacet
facet normal -0.3826834261417389 -0.9238795042037964 -2.355159227972821e-16
  outer loop
    vertex 771.63134765625 194.8350982666016 6.767919287064411e-14
    vertex 772.4754638671875 194.4854431152344 38.73137283325195
    vertex 771.63134765625 194.8350982666016 38.73137283325195
  endloop
endfacet
facet normal -6.154328048326157e-16 1.931051069146559e-26 1
  outer loop
    vertex 762.7254638671875 183.454345703125 38.73137283325195
    vertex 767.6943969726563 189.704345703125 38.73137283325195
    vertex 762.7254638671875 199.454345703125 38.73137283325195
  endloop
endfacet
facet normal -6.154328048326157e-16 1.931051069146559e-26 1
  outer loop
    vertex 767.6943969726563 189.704345703125 38.73137283325195
    vertex 762.7254638671875 183.454345703125 38.73137283325195
    vertex 768.2506103515625 188.9794769287109 38.73137283325195
  endloop
endfacet
facet normal -6.154328048326157e-16 1.931051069146559e-26 1
  outer loop
    vertex 768.2506103515625 188.9794769287109 38.73137283325195
    vertex 762.7254638671875 183.454345703125 38.73137283325195
    vertex 768.9754638671875 188.4232635498047 38.73137283325195
  endloop
endfacet
facet normal -6.154328048326157e-16 1.931051069146559e-26 1
  outer loop
    vertex 768.9754638671875 188.4232635498047 38.73137283325195
    vertex 762.7254638671875 183.454345703125 38.73137283325195
    vertex 778.7254638671875 183.454345703125 38.73137283325195
  endloop
endfacet
facet normal -6.154328048326157e-16 1.931051069146559e-26 1
  outer loop
    vertex 762.7254638671875 199.454345703125 38.73137283325195
    vertex 767.6943969726563 189.704345703125 38.73137283325195
    vertex 767.3447265625 190.5484924316406 38.73137283325195
  endloop
endfacet
facet normal -6.154328048326157e-16 1.931051069146559e-26 1
  outer loop
    vertex 762.7254638671875 199.454345703125 38.73137283325195
    vertex 767.3447265625 190.5484924316406 38.73137283325195
    vertex 767.2254638671875 191.454345703125 38.73137283325195
  endloop
endfacet
facet normal -6.154328048326157e-16 1.931051069146559e-26 1
  outer loop
    vertex 768.9754638671875 188.4232635498047 38.73137283325195
    vertex 778.7254638671875 183.454345703125 38.73137283325195
    vertex 769.819580078125 188.0736083984375 38.73137283325195
  endloop
endfacet
facet normal -6.154328048326157e-16 1.931051069146559e-26 1
  outer loop
    vertex 769.819580078125 188.0736083984375 38.73137283325195
    vertex 778.7254638671875 183.454345703125 38.73137283325195
    vertex 770.7254638671875 187.954345703125 38.73137283325195
  endloop
endfacet
facet normal -6.154328048326157e-16 1.931051069146559e-26 1
  outer loop
    vertex 770.7254638671875 187.954345703125 38.73137283325195
    vertex 778.7254638671875 183.454345703125 38.73137283325195
    vertex 771.63134765625 188.0736083984375 38.73137283325195
  endloop
endfacet
facet normal -6.154328048326157e-16 1.931051069146559e-26 1
  outer loop
    vertex 771.63134765625 188.0736083984375 38.73137283325195
    vertex 778.7254638671875 183.454345703125 38.73137283325195
    vertex 772.4754638671875 188.4232635498047 38.73137283325195
  endloop
endfacet
facet normal -6.154328048326157e-16 1.931051069146559e-26 1
  outer loop
    vertex 772.4754638671875 188.4232635498047 38.73137283325195
    vertex 778.7254638671875 183.454345703125 38.73137283325195
    vertex 773.2003173828125 188.9794769287109 38.73137283325195
  endloop
endfacet
facet normal -6.154328048326157e-16 1.931051069146559e-26 1
  outer loop
    vertex 773.2003173828125 188.9794769287109 38.73137283325195
    vertex 778.7254638671875 183.454345703125 38.73137283325195
    vertex 773.7565307617188 189.704345703125 38.73137283325195
  endloop
endfacet
facet normal -6.154328048326157e-16 1.931051069146559e-26 1
  outer loop
    vertex 773.7565307617188 189.704345703125 38.73137283325195
    vertex 778.7254638671875 183.454345703125 38.73137283325195
    vertex 774.106201171875 190.5484924316406 38.73137283325195
  endloop
endfacet
facet normal -6.154328048326157e-16 1.931051069146559e-26 1
  outer loop
    vertex 774.106201171875 190.5484924316406 38.73137283325195
    vertex 778.7254638671875 183.454345703125 38.73137283325195
    vertex 774.2254638671875 191.454345703125 38.73137283325195
  endloop
endfacet
facet normal -6.154328048326157e-16 1.931051069146559e-26 1
  outer loop
    vertex 762.7254638671875 199.454345703125 38.73137283325195
    vertex 768.9754638671875 194.4854431152344 38.73137283325195
    vertex 778.7254638671875 199.454345703125 38.73137283325195
  endloop
endfacet
facet normal -6.154328048326157e-16 1.931051069146559e-26 1
  outer loop
    vertex 768.9754638671875 194.4854431152344 38.73137283325195
    vertex 762.7254638671875 199.454345703125 38.73137283325195
    vertex 768.2506103515625 193.9292297363281 38.73137283325195
  endloop
endfacet
facet normal -6.154328048326157e-16 1.931051069146559e-26 1
  outer loop
    vertex 768.2506103515625 193.9292297363281 38.73137283325195
    vertex 762.7254638671875 199.454345703125 38.73137283325195
    vertex 767.6943969726563 193.204345703125 38.73137283325195
  endloop
endfacet
facet normal -6.154328048326157e-16 1.931051069146559e-26 1
  outer loop
    vertex 767.6943969726563 193.204345703125 38.73137283325195
    vertex 762.7254638671875 199.454345703125 38.73137283325195
    vertex 767.3447265625 192.3602142333984 38.73137283325195
  endloop
endfacet
facet normal -6.154328048326157e-16 1.931051069146559e-26 1
  outer loop
    vertex 767.3447265625 192.3602142333984 38.73137283325195
    vertex 762.7254638671875 199.454345703125 38.73137283325195
    vertex 767.2254638671875 191.454345703125 38.73137283325195
  endloop
endfacet
facet normal -6.154328048326157e-16 1.931051069146559e-26 1
  outer loop
    vertex 778.7254638671875 199.454345703125 38.73137283325195
    vertex 768.9754638671875 194.4854431152344 38.73137283325195
    vertex 769.819580078125 194.8350982666016 38.73137283325195
  endloop
endfacet
facet normal -6.154328048326157e-16 1.931051069146559e-26 1
  outer loop
    vertex 778.7254638671875 199.454345703125 38.73137283325195
    vertex 769.819580078125 194.8350982666016 38.73137283325195
    vertex 770.7254638671875 194.954345703125 38.73137283325195
  endloop
endfacet
facet normal -6.154328048326157e-16 1.931051069146559e-26 1
  outer loop
    vertex 778.7254638671875 199.454345703125 38.73137283325195
    vertex 770.7254638671875 194.954345703125 38.73137283325195
    vertex 771.63134765625 194.8350982666016 38.73137283325195
  endloop
endfacet
facet normal -6.154328048326157e-16 1.931051069146559e-26 1
  outer loop
    vertex 778.7254638671875 199.454345703125 38.73137283325195
    vertex 771.63134765625 194.8350982666016 38.73137283325195
    vertex 772.4754638671875 194.4854431152344 38.73137283325195
  endloop
endfacet
facet normal -6.154328048326157e-16 1.931051069146559e-26 1
  outer loop
    vertex 778.7254638671875 199.454345703125 38.73137283325195
    vertex 772.4754638671875 194.4854431152344 38.73137283325195
    vertex 773.2003173828125 193.9292297363281 38.73137283325195
  endloop
endfacet
facet normal -6.154328048326157e-16 1.931051069146559e-26 1
  outer loop
    vertex 778.7254638671875 199.454345703125 38.73137283325195
    vertex 773.2003173828125 193.9292297363281 38.73137283325195
    vertex 773.7565307617188 193.204345703125 38.73137283325195
  endloop
endfacet
facet normal -6.154328048326157e-16 1.931051069146559e-26 1
  outer loop
    vertex 778.7254638671875 199.454345703125 38.73137283325195
    vertex 773.7565307617188 193.204345703125 38.73137283325195
    vertex 774.106201171875 192.3602142333984 38.73137283325195
  endloop
endfacet
facet normal -6.154328048326157e-16 1.931051069146559e-26 1
  outer loop
    vertex 778.7254638671875 199.454345703125 38.73137283325195
    vertex 774.106201171875 192.3602142333984 38.73137283325195
    vertex 774.2254638671875 191.454345703125 38.73137283325195
  endloop
endfacet
facet normal -6.154328048326157e-16 1.931051069146559e-26 1
  outer loop
    vertex 778.7254638671875 199.454345703125 38.73137283325195
    vertex 774.2254638671875 191.454345703125 38.73137283325195
    vertex 778.7254638671875 183.454345703125 38.73137283325195
  endloop
endfacet
facet normal 0.3826834261417389 0.9238795042037964 2.355159227972821e-16
  outer loop
    vertex 768.9754638671875 188.4232635498047 38.73137283325195
    vertex 769.819580078125 188.0736083984375 6.767919287064411e-14
    vertex 768.9754638671875 188.4232635498047 6.767919287064411e-14
  endloop
endfacet
facet normal 0.3826834261417389 0.9238795042037964 2.355159227972821e-16
  outer loop
    vertex 769.819580078125 188.0736083984375 6.767919287064411e-14
    vertex 768.9754638671875 188.4232635498047 38.73137283325195
    vertex 769.819580078125 188.0736083984375 38.73137283325195
  endloop
endfacet
facet normal 6.154328048326157e-16 -1.931051069146559e-26 -1
  outer loop
    vertex 762.7254638671875 199.454345703125 0
    vertex 767.6943969726563 193.204345703125 6.767919287064411e-14
    vertex 762.7254638671875 183.454345703125 0
  endloop
endfacet
facet normal 6.154328048326157e-16 -1.931051069146559e-26 -1
  outer loop
    vertex 767.6943969726563 193.204345703125 6.767919287064411e-14
    vertex 762.7254638671875 199.454345703125 0
    vertex 768.2506103515625 193.9292297363281 6.767919287064411e-14
  endloop
endfacet
facet normal 6.154328048326157e-16 -1.931051069146559e-26 -1
  outer loop
    vertex 768.2506103515625 193.9292297363281 6.767919287064411e-14
    vertex 762.7254638671875 199.454345703125 0
    vertex 768.9754638671875 194.4854431152344 6.767919287064411e-14
  endloop
endfacet
facet normal 6.154328048326157e-16 -1.931051069146559e-26 -1
  outer loop
    vertex 768.9754638671875 194.4854431152344 6.767919287064411e-14
    vertex 762.7254638671875 199.454345703125 0
    vertex 778.7254638671875 199.454345703125 0
  endloop
endfacet
facet normal 6.154328048326157e-16 -1.931051069146559e-26 -1
  outer loop
    vertex 762.7254638671875 183.454345703125 0
    vertex 767.6943969726563 193.204345703125 6.767919287064411e-14
    vertex 767.3447265625 192.3602142333984 6.767919287064411e-14
  endloop
endfacet
facet normal 6.154328048326157e-16 -1.931051069146559e-26 -1
  outer loop
    vertex 762.7254638671875 183.454345703125 0
    vertex 767.3447265625 192.3602142333984 6.767919287064411e-14
    vertex 767.2254638671875 191.454345703125 6.767919287064411e-14
  endloop
endfacet
facet normal 6.154328048326157e-16 -1.931051069146559e-26 -1
  outer loop
    vertex 768.9754638671875 194.4854431152344 6.767919287064411e-14
    vertex 778.7254638671875 199.454345703125 0
    vertex 769.819580078125 194.8350982666016 6.767919287064411e-14
  endloop
endfacet
facet normal 6.154328048326157e-16 -1.931051069146559e-26 -1
  outer loop
    vertex 769.819580078125 194.8350982666016 6.767919287064411e-14
    vertex 778.7254638671875 199.454345703125 0
    vertex 770.7254638671875 194.954345703125 6.767919287064411e-14
  endloop
endfacet
facet normal 6.154328048326157e-16 -1.931051069146559e-26 -1
  outer loop
    vertex 770.7254638671875 194.954345703125 6.767919287064411e-14
    vertex 778.7254638671875 199.454345703125 0
    vertex 771.63134765625 194.8350982666016 6.767919287064411e-14
  endloop
endfacet
facet normal 6.154328048326157e-16 -1.931051069146559e-26 -1
  outer loop
    vertex 771.63134765625 194.8350982666016 6.767919287064411e-14
    vertex 778.7254638671875 199.454345703125 0
    vertex 772.4754638671875 194.4854431152344 6.767919287064411e-14
  endloop
endfacet
facet normal 6.154328048326157e-16 -1.931051069146559e-26 -1
  outer loop
    vertex 772.4754638671875 194.4854431152344 6.767919287064411e-14
    vertex 778.7254638671875 199.454345703125 0
    vertex 773.2003173828125 193.9292297363281 6.767919287064411e-14
  endloop
endfacet
facet normal 6.154328048326157e-16 -1.931051069146559e-26 -1
  outer loop
    vertex 773.2003173828125 193.9292297363281 6.767919287064411e-14
    vertex 778.7254638671875 199.454345703125 0
    vertex 773.7565307617188 193.204345703125 6.767919287064411e-14
  endloop
endfacet
facet normal 6.154328048326157e-16 -1.931051069146559e-26 -1
  outer loop
    vertex 773.7565307617188 193.204345703125 6.767919287064411e-14
    vertex 778.7254638671875 199.454345703125 0
    vertex 774.106201171875 192.3602142333984 6.767919287064411e-14
  endloop
endfacet
facet normal 6.154328048326157e-16 -1.931051069146559e-26 -1
  outer loop
    vertex 774.106201171875 192.3602142333984 6.767919287064411e-14
    vertex 778.7254638671875 199.454345703125 0
    vertex 774.2254638671875 191.454345703125 6.767919287064411e-14
  endloop
endfacet
facet normal 6.154328048326157e-16 -1.931051069146559e-26 -1
  outer loop
    vertex 762.7254638671875 183.454345703125 0
    vertex 768.9754638671875 188.4232635498047 6.767919287064411e-14
    vertex 778.7254638671875 183.454345703125 0
  endloop
endfacet
facet normal 6.154328048326157e-16 -1.931051069146559e-26 -1
  outer loop
    vertex 768.9754638671875 188.4232635498047 6.767919287064411e-14
    vertex 762.7254638671875 183.454345703125 0
    vertex 768.2506103515625 188.9794769287109 6.767919287064411e-14
  endloop
endfacet
facet normal 6.154328048326157e-16 -1.931051069146559e-26 -1
  outer loop
    vertex 768.2506103515625 188.9794769287109 6.767919287064411e-14
    vertex 762.7254638671875 183.454345703125 0
    vertex 767.6943969726563 189.704345703125 6.767919287064411e-14
  endloop
endfacet
facet normal 6.154328048326157e-16 -1.931051069146559e-26 -1
  outer loop
    vertex 767.6943969726563 189.704345703125 6.767919287064411e-14
    vertex 762.7254638671875 183.454345703125 0
    vertex 767.3447265625 190.5484924316406 6.767919287064411e-14
  endloop
endfacet
facet normal 6.154328048326157e-16 -1.931051069146559e-26 -1
  outer loop
    vertex 767.3447265625 190.5484924316406 6.767919287064411e-14
    vertex 762.7254638671875 183.454345703125 0
    vertex 767.2254638671875 191.454345703125 6.767919287064411e-14
  endloop
endfacet
facet normal 6.154328048326157e-16 -1.931051069146559e-26 -1
  outer loop
    vertex 778.7254638671875 183.454345703125 0
    vertex 768.9754638671875 188.4232635498047 6.767919287064411e-14
    vertex 769.819580078125 188.0736083984375 6.767919287064411e-14
  endloop
endfacet
facet normal 6.154328048326157e-16 -1.931051069146559e-26 -1
  outer loop
    vertex 778.7254638671875 183.454345703125 0
    vertex 769.819580078125 188.0736083984375 6.767919287064411e-14
    vertex 770.7254638671875 187.954345703125 6.767919287064411e-14
  endloop
endfacet
facet normal 6.154328048326157e-16 -1.931051069146559e-26 -1
  outer loop
    vertex 778.7254638671875 183.454345703125 0
    vertex 770.7254638671875 187.954345703125 6.767919287064411e-14
    vertex 771.63134765625 188.0736083984375 6.767919287064411e-14
  endloop
endfacet
facet normal 6.154328048326157e-16 -1.931051069146559e-26 -1
  outer loop
    vertex 778.7254638671875 183.454345703125 0
    vertex 771.63134765625 188.0736083984375 6.767919287064411e-14
    vertex 772.4754638671875 188.4232635498047 6.767919287064411e-14
  endloop
endfacet
facet normal 6.154328048326157e-16 -1.931051069146559e-26 -1
  outer loop
    vertex 778.7254638671875 183.454345703125 0
    vertex 772.4754638671875 188.4232635498047 6.767919287064411e-14
    vertex 773.2003173828125 188.9794769287109 6.767919287064411e-14
  endloop
endfacet
facet normal 6.154328048326157e-16 -1.931051069146559e-26 -1
  outer loop
    vertex 778.7254638671875 183.454345703125 0
    vertex 773.2003173828125 188.9794769287109 6.767919287064411e-14
    vertex 773.7565307617188 189.704345703125 6.767919287064411e-14
  endloop
endfacet
facet normal 6.154328048326157e-16 -1.931051069146559e-26 -1
  outer loop
    vertex 778.7254638671875 183.454345703125 0
    vertex 773.7565307617188 189.704345703125 6.767919287064411e-14
    vertex 774.106201171875 190.5484924316406 6.767919287064411e-14
  endloop
endfacet
facet normal 6.154328048326157e-16 -1.931051069146559e-26 -1
  outer loop
    vertex 778.7254638671875 183.454345703125 0
    vertex 774.106201171875 190.5484924316406 6.767919287064411e-14
    vertex 774.2254638671875 191.454345703125 6.767919287064411e-14
  endloop
endfacet
facet normal 6.154328048326157e-16 -1.931051069146559e-26 -1
  outer loop
    vertex 778.7254638671875 183.454345703125 0
    vertex 774.2254638671875 191.454345703125 6.767919287064411e-14
    vertex 778.7254638671875 199.454345703125 0
  endloop
endfacet
facet normal 0 1 -1.931051069146559e-26
  outer loop
    vertex 762.7254638671875 199.454345703125 38.73137283325195
    vertex 778.7254638671875 199.454345703125 0
    vertex 762.7254638671875 199.454345703125 0
  endloop
endfacet
facet normal 0 1 -1.931051069146559e-26
  outer loop
    vertex 778.7254638671875 199.454345703125 0
    vertex 762.7254638671875 199.454345703125 38.73137283325195
    vertex 778.7254638671875 199.454345703125 38.73137283325195
  endloop
endfacet
facet normal 1 0 6.154328048326157e-16
  outer loop
    vertex 778.7254638671875 199.454345703125 0
    vertex 778.7254638671875 183.454345703125 38.73137283325195
    vertex 778.7254638671875 183.454345703125 0
  endloop
endfacet
facet normal 1 0 6.154328048326157e-16
  outer loop
    vertex 778.7254638671875 183.454345703125 38.73137283325195
    vertex 778.7254638671875 199.454345703125 0
    vertex 778.7254638671875 199.454345703125 38.73137283325195
  endloop
endfacet
facet normal 0.9914448857307434 0.1305261850357056 6.101676480324829e-16
  outer loop
    vertex 767.2254638671875 191.454345703125 6.767919287064411e-14
    vertex 767.3447265625 190.5484924316406 38.73137283325195
    vertex 767.3447265625 190.5484924316406 6.767919287064411e-14
  endloop
endfacet
facet normal 0.9914448857307434 0.1305261850357056 6.101676480324829e-16
  outer loop
    vertex 767.3447265625 190.5484924316406 38.73137283325195
    vertex 767.2254638671875 191.454345703125 6.767919287064411e-14
    vertex 767.2254638671875 191.454345703125 38.73137283325195
  endloop
endfacet
facet normal 0.3826834261417389 -0.9238795042037964 2.355159227972821e-16
  outer loop
    vertex 769.819580078125 194.8350982666016 38.73137283325195
    vertex 768.9754638671875 194.4854431152344 6.767919287064411e-14
    vertex 769.819580078125 194.8350982666016 6.767919287064411e-14
  endloop
endfacet
facet normal 0.3826834261417389 -0.9238795042037964 2.355159227972821e-16
  outer loop
    vertex 768.9754638671875 194.4854431152344 6.767919287064411e-14
    vertex 769.819580078125 194.8350982666016 38.73137283325195
    vertex 768.9754638671875 194.4854431152344 38.73137283325195
  endloop
endfacet
facet normal 0.9238795042037964 -0.3826834261417389 5.685857418605853e-16
  outer loop
    vertex 767.6943969726563 193.204345703125 6.767919287064411e-14
    vertex 767.3447265625 192.3602142333984 38.73137283325195
    vertex 767.3447265625 192.3602142333984 6.767919287064411e-14
  endloop
endfacet
facet normal 0.9238795042037964 -0.3826834261417389 5.685857418605853e-16
  outer loop
    vertex 767.3447265625 192.3602142333984 38.73137283325195
    vertex 767.6943969726563 193.204345703125 6.767919287064411e-14
    vertex 767.6943969726563 193.204345703125 38.73137283325195
  endloop
endfacet
facet normal -0.9238795042037964 0.3826834261417389 -5.685857418605853e-16
  outer loop
    vertex 774.106201171875 190.5484924316406 38.73137283325195
    vertex 773.7565307617188 189.704345703125 6.767919287064411e-14
    vertex 773.7565307617188 189.704345703125 38.73137283325195
  endloop
endfacet
facet normal -0.9238795042037964 0.3826834261417389 -5.685857418605853e-16
  outer loop
    vertex 773.7565307617188 189.704345703125 6.767919287064411e-14
    vertex 774.106201171875 190.5484924316406 38.73137283325195
    vertex 774.106201171875 190.5484924316406 6.767919287064411e-14
  endloop
endfacet
facet normal -0.6087614297866821 0.7933533191680908 -3.746517517049804e-16
  outer loop
    vertex 772.4754638671875 188.4232635498047 38.73137283325195
    vertex 773.2003173828125 188.9794769287109 6.767919287064411e-14
    vertex 772.4754638671875 188.4232635498047 6.767919287064411e-14
  endloop
endfacet
facet normal -0.6087614297866821 0.7933533191680908 -3.746517517049804e-16
  outer loop
    vertex 773.2003173828125 188.9794769287109 6.767919287064411e-14
    vertex 772.4754638671875 188.4232635498047 38.73137283325195
    vertex 773.2003173828125 188.9794769287109 38.73137283325195
  endloop
endfacet
facet normal -0.9238795042037964 -0.3826834261417389 -5.685857418605853e-16
  outer loop
    vertex 773.7565307617188 193.204345703125 38.73137283325195
    vertex 774.106201171875 192.3602142333984 6.767919287064411e-14
    vertex 774.106201171875 192.3602142333984 38.73137283325195
  endloop
endfacet
facet normal -0.9238795042037964 -0.3826834261417389 -5.685857418605853e-16
  outer loop
    vertex 774.106201171875 192.3602142333984 6.767919287064411e-14
    vertex 773.7565307617188 193.204345703125 38.73137283325195
    vertex 773.7565307617188 193.204345703125 6.767919287064411e-14
  endloop
endfacet
facet normal 0.7933533191680908 0.6087614297866821 4.882556782418292e-16
  outer loop
    vertex 767.6943969726563 189.704345703125 6.767919287064411e-14
    vertex 768.2506103515625 188.9794769287109 38.73137283325195
    vertex 768.2506103515625 188.9794769287109 6.767919287064411e-14
  endloop
endfacet
facet normal 0.7933533191680908 0.6087614297866821 4.882556782418292e-16
  outer loop
    vertex 768.2506103515625 188.9794769287109 38.73137283325195
    vertex 767.6943969726563 189.704345703125 6.767919287064411e-14
    vertex 767.6943969726563 189.704345703125 38.73137283325195
  endloop
endfacet
facet normal -0.7933533191680908 -0.6087614297866821 -4.882556782418292e-16
  outer loop
    vertex 773.2003173828125 193.9292297363281 38.73137283325195
    vertex 773.7565307617188 193.204345703125 6.767919287064411e-14
    vertex 773.7565307617188 193.204345703125 38.73137283325195
  endloop
endfacet
facet normal -0.7933533191680908 -0.6087614297866821 -4.882556782418292e-16
  outer loop
    vertex 773.7565307617188 193.204345703125 6.767919287064411e-14
    vertex 773.2003173828125 193.9292297363281 38.73137283325195
    vertex 773.2003173828125 193.9292297363281 6.767919287064411e-14
  endloop
endfacet
facet normal -0.9914448857307434 0.1305261850357056 -6.101676480324829e-16
  outer loop
    vertex 774.2254638671875 191.454345703125 38.73137283325195
    vertex 774.106201171875 190.5484924316406 6.767919287064411e-14
    vertex 774.106201171875 190.5484924316406 38.73137283325195
  endloop
endfacet
facet normal -0.9914448857307434 0.1305261850357056 -6.101676480324829e-16
  outer loop
    vertex 774.106201171875 190.5484924316406 6.767919287064411e-14
    vertex 774.2254638671875 191.454345703125 38.73137283325195
    vertex 774.2254638671875 191.454345703125 6.767919287064411e-14
  endloop
endfacet
facet normal 0.6087614297866821 0.7933533191680908 3.746517517049804e-16
  outer loop
    vertex 768.2506103515625 188.9794769287109 38.73137283325195
    vertex 768.9754638671875 188.4232635498047 6.767919287064411e-14
    vertex 768.2506103515625 188.9794769287109 6.767919287064411e-14
  endloop
endfacet
facet normal 0.6087614297866821 0.7933533191680908 3.746517517049804e-16
  outer loop
    vertex 768.9754638671875 188.4232635498047 6.767919287064411e-14
    vertex 768.2506103515625 188.9794769287109 38.73137283325195
    vertex 768.9754638671875 188.4232635498047 38.73137283325195
  endloop
endfacet
facet normal -0.3826834261417389 0.9238795042037964 -2.355159227972821e-16
  outer loop
    vertex 771.63134765625 188.0736083984375 38.73137283325195
    vertex 772.4754638671875 188.4232635498047 6.767919287064411e-14
    vertex 771.63134765625 188.0736083984375 6.767919287064411e-14
  endloop
endfacet
facet normal -0.3826834261417389 0.9238795042037964 -2.355159227972821e-16
  outer loop
    vertex 772.4754638671875 188.4232635498047 6.767919287064411e-14
    vertex 771.63134765625 188.0736083984375 38.73137283325195
    vertex 772.4754638671875 188.4232635498047 38.73137283325195
  endloop
endfacet
facet normal 0.9914448857307434 -0.1305261850357056 6.101676480324829e-16
  outer loop
    vertex 767.3447265625 192.3602142333984 6.767919287064411e-14
    vertex 767.2254638671875 191.454345703125 38.73137283325195
    vertex 767.2254638671875 191.454345703125 6.767919287064411e-14
  endloop
endfacet
facet normal 0.9914448857307434 -0.1305261850357056 6.101676480324829e-16
  outer loop
    vertex 767.2254638671875 191.454345703125 38.73137283325195
    vertex 767.3447265625 192.3602142333984 6.767919287064411e-14
    vertex 767.3447265625 192.3602142333984 38.73137283325195
  endloop
endfacet
facet normal 0.1305261850357056 -0.9914448857307434 8.033009670598058e-17
  outer loop
    vertex 770.7254638671875 194.954345703125 38.73137283325195
    vertex 769.819580078125 194.8350982666016 6.767919287064411e-14
    vertex 770.7254638671875 194.954345703125 6.767919287064411e-14
  endloop
endfacet
facet normal 0.1305261850357056 -0.9914448857307434 8.033009670598058e-17
  outer loop
    vertex 769.819580078125 194.8350982666016 6.767919287064411e-14
    vertex 770.7254638671875 194.954345703125 38.73137283325195
    vertex 769.819580078125 194.8350982666016 38.73137283325195
  endloop
endfacet
facet normal -0.6087614297866821 -0.7933533191680908 -3.746517517049804e-16
  outer loop
    vertex 773.2003173828125 193.9292297363281 38.73137283325195
    vertex 772.4754638671875 194.4854431152344 6.767919287064411e-14
    vertex 773.2003173828125 193.9292297363281 6.767919287064411e-14
  endloop
endfacet
facet normal -0.6087614297866821 -0.7933533191680908 -3.746517517049804e-16
  outer loop
    vertex 772.4754638671875 194.4854431152344 6.767919287064411e-14
    vertex 773.2003173828125 193.9292297363281 38.73137283325195
    vertex 772.4754638671875 194.4854431152344 38.73137283325195
  endloop
endfacet
facet normal 0.9238795042037964 0.3826834261417389 5.685857418605853e-16
  outer loop
    vertex 767.3447265625 190.5484924316406 6.767919287064411e-14
    vertex 767.6943969726563 189.704345703125 38.73137283325195
    vertex 767.6943969726563 189.704345703125 6.767919287064411e-14
  endloop
endfacet
facet normal 0.9238795042037964 0.3826834261417389 5.685857418605853e-16
  outer loop
    vertex 767.6943969726563 189.704345703125 38.73137283325195
    vertex 767.3447265625 190.5484924316406 6.767919287064411e-14
    vertex 767.3447265625 190.5484924316406 38.73137283325195
  endloop
endfacet
facet normal -0.7933533191680908 0.6087614297866821 -4.882556782418292e-16
  outer loop
    vertex 773.7565307617188 189.704345703125 38.73137283325195
    vertex 773.2003173828125 188.9794769287109 6.767919287064411e-14
    vertex 773.2003173828125 188.9794769287109 38.73137283325195
  endloop
endfacet
facet normal -0.7933533191680908 0.6087614297866821 -4.882556782418292e-16
  outer loop
    vertex 773.2003173828125 188.9794769287109 6.767919287064411e-14
    vertex 773.7565307617188 189.704345703125 38.73137283325195
    vertex 773.7565307617188 189.704345703125 6.767919287064411e-14
  endloop
endfacet
facet normal -0.1305261850357056 0.9914448857307434 -8.033009670598058e-17
  outer loop
    vertex 770.7254638671875 187.954345703125 38.73137283325195
    vertex 771.63134765625 188.0736083984375 6.767919287064411e-14
    vertex 770.7254638671875 187.954345703125 6.767919287064411e-14
  endloop
endfacet
facet normal -0.1305261850357056 0.9914448857307434 -8.033009670598058e-17
  outer loop
    vertex 771.63134765625 188.0736083984375 6.767919287064411e-14
    vertex 770.7254638671875 187.954345703125 38.73137283325195
    vertex 771.63134765625 188.0736083984375 38.73137283325195
  endloop
endfacet
facet normal -1 0 -6.154328048326157e-16
  outer loop
    vertex 762.7254638671875 199.454345703125 38.73137283325195
    vertex 762.7254638671875 183.454345703125 0
    vertex 762.7254638671875 183.454345703125 38.73137283325195
  endloop
endfacet
facet normal -1 0 -6.154328048326157e-16
  outer loop
    vertex 762.7254638671875 183.454345703125 0
    vertex 762.7254638671875 199.454345703125 38.73137283325195
    vertex 762.7254638671875 199.454345703125 0
  endloop
endfacet
facet normal -0.1305261850357056 -0.9914448857307434 -8.033009670598058e-17
  outer loop
    vertex 771.63134765625 194.8350982666016 38.73137283325195
    vertex 770.7254638671875 194.954345703125 6.767919287064411e-14
    vertex 771.63134765625 194.8350982666016 6.767919287064411e-14
  endloop
endfacet
facet normal -0.1305261850357056 -0.9914448857307434 -8.033009670598058e-17
  outer loop
    vertex 770.7254638671875 194.954345703125 6.767919287064411e-14
    vertex 771.63134765625 194.8350982666016 38.73137283325195
    vertex 770.7254638671875 194.954345703125 38.73137283325195
  endloop
endfacet
facet normal 0 -1 1.931051069146559e-26
  outer loop
    vertex 778.7254638671875 183.454345703125 38.73137283325195
    vertex 762.7254638671875 183.454345703125 0
    vertex 778.7254638671875 183.454345703125 0
  endloop
endfacet
facet normal 0 -1 1.931051069146559e-26
  outer loop
    vertex 762.7254638671875 183.454345703125 0
    vertex 778.7254638671875 183.454345703125 38.73137283325195
    vertex 762.7254638671875 183.454345703125 38.73137283325195
  endloop
endfacet
facet normal 0.7933533191680908 -0.6087614297866821 4.882556782418292e-16
  outer loop
    vertex 768.2506103515625 193.9292297363281 6.767919287064411e-14
    vertex 767.6943969726563 193.204345703125 38.73137283325195
    vertex 767.6943969726563 193.204345703125 6.767919287064411e-14
  endloop
endfacet
facet normal 0.7933533191680908 -0.6087614297866821 4.882556782418292e-16
  outer loop
    vertex 767.6943969726563 193.204345703125 38.73137283325195
    vertex 768.2506103515625 193.9292297363281 6.767919287064411e-14
    vertex 768.2506103515625 193.9292297363281 38.73137283325195
  endloop
endfacet
facet normal 0.1305261850357056 0.9914448857307434 8.033009670598058e-17
  outer loop
    vertex 769.819580078125 188.0736083984375 38.73137283325195
    vertex 770.7254638671875 187.954345703125 6.767919287064411e-14
    vertex 769.819580078125 188.0736083984375 6.767919287064411e-14
  endloop
endfacet
facet normal 0.1305261850357056 0.9914448857307434 8.033009670598058e-17
  outer loop
    vertex 770.7254638671875 187.954345703125 6.767919287064411e-14
    vertex 769.819580078125 188.0736083984375 38.73137283325195
    vertex 770.7254638671875 187.954345703125 38.73137283325195
  endloop
endfacet
facet normal 0.6087614297866821 -0.7933533191680908 3.746517517049804e-16
  outer loop
    vertex 768.9754638671875 194.4854431152344 38.73137283325195
    vertex 768.2506103515625 193.9292297363281 6.767919287064411e-14
    vertex 768.9754638671875 194.4854431152344 6.767919287064411e-14
  endloop
endfacet
facet normal 0.6087614297866821 -0.7933533191680908 3.746517517049804e-16
  outer loop
    vertex 768.2506103515625 193.9292297363281 6.767919287064411e-14
    vertex 768.9754638671875 194.4854431152344 38.73137283325195
    vertex 768.2506103515625 193.9292297363281 38.73137283325195
  endloop
endfacet
endsolid 6DD5
